  0
SECTION
  2
HEADER
  9
$ACADVER
  1
AC1014
  9
$HANDSEED
  5
FFFF
  9
$MEASUREMENT
 70
     1
  0
ENDSEC
  0
SECTION
  2
TABLES
  0
TABLE
  2
VPORT
  5
8
330
0
100
AcDbSymbolTable
 70
     4
  0
VPORT
  5
2E
330
8
100
AcDbSymbolTableRecord
100
AcDbViewportTableRecord
  2
*ACTIVE
 70
     0
 10
0.0
 20
0.0
 11
1.0
 21
1.0
 12
210.0
 22
148.5
 13
0.0
 23
0.0
 14
10.0
 24
10.0
 15
10.0
 25
10.0
 16
0.0
 26
0.0
 36
1.0
 17
0.0
 27
0.0
 37
0.0
 40
341.0
 41
1.24
 42
50.0
 43
0.0
 44
0.0
 50
0.0
 51
0.0
 71
     0
 72
   100
 73
     1
 74
     3
 75
     0
 76
     0
 77
     0
 78
     0
  0
ENDTAB
  0
TABLE
  2
LTYPE
  5
5
330
0
100
AcDbSymbolTable
 70
     1
  0
LTYPE
  5
14
330
5
100
AcDbSymbolTableRecord
100
AcDbLinetypeTableRecord
  2
BYBLOCK
 70
     0
  3

 72
    65
 73
     0
 40
0.0
  0
LTYPE
  5
15
330
5
100
AcDbSymbolTableRecord
100
AcDbLinetypeTableRecord
  2
BYLAYER
 70
     0
  3

 72
    65
 73
     0
 40
0.0
  0
LTYPE
  5
16
330
5
100
AcDbSymbolTableRecord
100
AcDbLinetypeTableRecord
  2
CONTINUOUS
 70
     0
  3
Solid line
 72
    65
 73
     0
 40
0.0
  0
ENDTAB
  0
TABLE
  2
LAYER
  5
2
100
AcDbSymbolTable
 70
2
  0
LAYER
  5
50
100
AcDbSymbolTableRecord
100
AcDbLayerTableRecord
  2
0
 70
0
  6
CONTINUOUS
  0
LAYER
  5
51
100
AcDbSymbolTableRecord
100
AcDbLayerTableRecord
  2
Calque_1
 70
0
  6
CONTINUOUS
  0
ENDTAB
  0
TABLE
  2
STYLE
  5
3
330
0
100
AcDbSymbolTable
 70
     1
  0
STYLE
  5
11
330
3
100
AcDbSymbolTableRecord
100
AcDbTextStyleTableRecord
  2
STANDARD
 70
     0
 40
0.0
 41
1.0
 50
0.0
 71
     0
 42
2.5
  3
txt
  4

  0
ENDTAB
  0
TABLE
  2
VIEW
  5
6
330
0
100
AcDbSymbolTable
 70
     0
  0
ENDTAB
  0
TABLE
  2
UCS
  5
7
330
0
100
AcDbSymbolTable
 70
     0
  0
ENDTAB
  0
TABLE
  2
APPID
  5
9
330
0
100
AcDbSymbolTable
 70
     2
  0
APPID
  5
12
330
9
100
AcDbSymbolTableRecord
100
AcDbRegAppTableRecord
  2
ACAD
 70
     0
  0
ENDTAB
  0
TABLE
  2
DIMSTYLE
  5
A
330
0
100
AcDbSymbolTable
 70
     1
  0
DIMSTYLE
105
27
330
A
100
AcDbSymbolTableRecord
100
AcDbDimStyleTableRecord
  2
ISO-25
 70
     0
  3

  4

  5

  6

  7

 40
1.0
 41
2.5
 42
0.625
 43
3.75
 44
1.25
 45
0.0
 46
0.0
 47
0.0
 48
0.0
140
2.5
141
2.5
142
0.0
143
0.03937007874016
144
1.0
145
0.0
146
1.0
147
0.625
 71
     0
 72
     0
 73
     0
 74
     0
 75
     0
 76
     0
 77
     1
 78
     8
170
     0
171
     3
172
     1
173
     0
174
     0
175
     0
176
     0
177
     0
178
     0
270
     2
271
     2
272
     2
273
     2
274
     3
340
11
275
     0
280
     0
281
     0
282
     0
283
     0
284
     8
285
     0
286
     0
287
     3
288
     0
  0
ENDTAB
  0
TABLE
  2
BLOCK_RECORD
  5
1
330
0
100
AcDbSymbolTable
 70
     1
  0
BLOCK_RECORD
  5
1F
330
1
100
AcDbSymbolTableRecord
100
AcDbBlockTableRecord
  2
*MODEL_SPACE
  0
BLOCK_RECORD
  5
1B
330
1
100
AcDbSymbolTableRecord
100
AcDbBlockTableRecord
  2
*PAPER_SPACE
  0
ENDTAB
  0
ENDSEC
  0
SECTION
  2
BLOCKS
  0
BLOCK
  5
20
330
1F
100
AcDbEntity
  8
0
100
AcDbBlockBegin
  2
*MODEL_SPACE
 70
     0
 10
0.0
 20
0.0
 30
0.0
  3
*MODEL_SPACE
  1

  0
ENDBLK
  5
21
330
1F
100
AcDbEntity
  8
0
100
AcDbBlockEnd
  0
BLOCK
  5
1C
330
1B
100
AcDbEntity
 67
     1
  8
0
100
AcDbBlockBegin
  2
*PAPER_SPACE
  1

  0
ENDBLK
  5
1D
330
1B
100
AcDbEntity
 67
     1
  8
0
100
AcDbBlockEnd
  0
ENDSEC
  0
SECTION
  2
ENTITIES
  0
LINE
  5
100
100
AcDbEntity
  8
Calque_1
 62
1
100
AcDbLine
 10
-380.035718
 20
284.255952
 30
0.0
 11
-374.985718
 21
284.255952
 31
0.0
  0
LINE
  5
101
100
AcDbEntity
  8
Calque_1
 62
1
100
AcDbLine
 10
-374.985718
 20
284.255952
 30
0.0
 11
-374.985718
 21
281.255952
 31
0.0
  0
LINE
  5
102
100
AcDbEntity
  8
Calque_1
 62
1
100
AcDbLine
 10
-374.985718
 20
281.255952
 30
0.0
 11
-370.085718
 21
281.255952
 31
0.0
  0
LINE
  5
103
100
AcDbEntity
  8
Calque_1
 62
1
100
AcDbLine
 10
-370.085718
 20
281.255952
 30
0.0
 11
-370.085718
 21
284.255952
 31
0.0
  0
LINE
  5
104
100
AcDbEntity
  8
Calque_1
 62
1
100
AcDbLine
 10
-370.085718
 20
284.255952
 30
0.0
 11
-364.985718
 21
284.255952
 31
0.0
  0
LINE
  5
105
100
AcDbEntity
  8
Calque_1
 62
1
100
AcDbLine
 10
-364.985718
 20
284.255952
 30
0.0
 11
-364.985718
 21
281.255952
 31
0.0
  0
LINE
  5
106
100
AcDbEntity
  8
Calque_1
 62
1
100
AcDbLine
 10
-364.985718
 20
281.255952
 30
0.0
 11
-360.085718
 21
281.255952
 31
0.0
  0
LINE
  5
107
100
AcDbEntity
  8
Calque_1
 62
1
100
AcDbLine
 10
-360.085718
 20
281.255952
 30
0.0
 11
-360.085718
 21
284.255952
 31
0.0
  0
LINE
  5
108
100
AcDbEntity
  8
Calque_1
 62
1
100
AcDbLine
 10
-360.085718
 20
284.255952
 30
0.0
 11
-354.985718
 21
284.255952
 31
0.0
  0
LINE
  5
109
100
AcDbEntity
  8
Calque_1
 62
1
100
AcDbLine
 10
-354.985718
 20
284.255952
 30
0.0
 11
-354.985718
 21
281.255952
 31
0.0
  0
LINE
  5
10a
100
AcDbEntity
  8
Calque_1
 62
1
100
AcDbLine
 10
-354.985718
 20
281.255952
 30
0.0
 11
-350.085718
 21
281.255952
 31
0.0
  0
LINE
  5
10b
100
AcDbEntity
  8
Calque_1
 62
1
100
AcDbLine
 10
-350.085718
 20
281.255952
 30
0.0
 11
-350.085718
 21
284.255952
 31
0.0
  0
LINE
  5
10c
100
AcDbEntity
  8
Calque_1
 62
1
100
AcDbLine
 10
-350.085718
 20
284.255952
 30
0.0
 11
-344.985718
 21
284.255952
 31
0.0
  0
LINE
  5
10d
100
AcDbEntity
  8
Calque_1
 62
1
100
AcDbLine
 10
-344.985718
 20
284.255952
 30
0.0
 11
-344.985718
 21
281.255952
 31
0.0
  0
LINE
  5
10e
100
AcDbEntity
  8
Calque_1
 62
1
100
AcDbLine
 10
-344.985718
 20
281.255952
 30
0.0
 11
-340.085718
 21
281.255952
 31
0.0
  0
LINE
  5
10f
100
AcDbEntity
  8
Calque_1
 62
1
100
AcDbLine
 10
-340.085718
 20
281.255952
 30
0.0
 11
-340.085718
 21
284.255952
 31
0.0
  0
LINE
  5
110
100
AcDbEntity
  8
Calque_1
 62
1
100
AcDbLine
 10
-340.085718
 20
284.255952
 30
0.0
 11
-334.985718
 21
284.255952
 31
0.0
  0
LINE
  5
111
100
AcDbEntity
  8
Calque_1
 62
1
100
AcDbLine
 10
-334.985718
 20
284.255952
 30
0.0
 11
-334.985718
 21
281.255952
 31
0.0
  0
LINE
  5
112
100
AcDbEntity
  8
Calque_1
 62
1
100
AcDbLine
 10
-334.985718
 20
281.255952
 30
0.0
 11
-330.085718
 21
281.255952
 31
0.0
  0
LINE
  5
113
100
AcDbEntity
  8
Calque_1
 62
1
100
AcDbLine
 10
-330.085718
 20
281.255952
 30
0.0
 11
-330.085718
 21
284.255952
 31
0.0
  0
LINE
  5
114
100
AcDbEntity
  8
Calque_1
 62
1
100
AcDbLine
 10
-330.085718
 20
284.255952
 30
0.0
 11
-325.035718
 21
284.255952
 31
0.0
  0
LINE
  5
115
100
AcDbEntity
  8
Calque_1
 62
1
100
AcDbLine
 10
-325.035718
 20
284.255952
 30
0.0
 11
-325.035718
 21
278.988562
 31
0.0
  0
LINE
  5
116
100
AcDbEntity
  8
Calque_1
 62
1
100
AcDbLine
 10
-325.035718
 20
278.988562
 30
0.0
 11
-328.035718
 21
278.988562
 31
0.0
  0
LINE
  5
117
100
AcDbEntity
  8
Calque_1
 62
1
100
AcDbLine
 10
-328.035718
 20
278.988562
 30
0.0
 11
-328.035718
 21
273.871172
 31
0.0
  0
LINE
  5
118
100
AcDbEntity
  8
Calque_1
 62
1
100
AcDbLine
 10
-328.035718
 20
273.871172
 30
0.0
 11
-325.035718
 21
273.871172
 31
0.0
  0
LINE
  5
119
100
AcDbEntity
  8
Calque_1
 62
1
100
AcDbLine
 10
-325.035718
 20
273.871172
 30
0.0
 11
-325.035718
 21
268.553782
 31
0.0
  0
LINE
  5
11a
100
AcDbEntity
  8
Calque_1
 62
1
100
AcDbLine
 10
-325.035718
 20
268.553782
 30
0.0
 11
-328.035718
 21
268.553782
 31
0.0
  0
LINE
  5
11b
100
AcDbEntity
  8
Calque_1
 62
1
100
AcDbLine
 10
-328.035718
 20
268.553782
 30
0.0
 11
-328.035718
 21
263.436382
 31
0.0
  0
LINE
  5
11c
100
AcDbEntity
  8
Calque_1
 62
1
100
AcDbLine
 10
-328.035718
 20
263.436382
 30
0.0
 11
-325.035718
 21
263.436382
 31
0.0
  0
LINE
  5
11d
100
AcDbEntity
  8
Calque_1
 62
1
100
AcDbLine
 10
-325.035718
 20
263.436382
 30
0.0
 11
-325.035718
 21
258.118992
 31
0.0
  0
LINE
  5
11e
100
AcDbEntity
  8
Calque_1
 62
1
100
AcDbLine
 10
-325.035718
 20
258.118992
 30
0.0
 11
-328.035718
 21
258.118992
 31
0.0
  0
LINE
  5
11f
100
AcDbEntity
  8
Calque_1
 62
1
100
AcDbLine
 10
-328.035718
 20
258.118992
 30
0.0
 11
-328.035718
 21
253.001602
 31
0.0
  0
LINE
  5
120
100
AcDbEntity
  8
Calque_1
 62
1
100
AcDbLine
 10
-328.035718
 20
253.001602
 30
0.0
 11
-325.035718
 21
253.001602
 31
0.0
  0
LINE
  5
121
100
AcDbEntity
  8
Calque_1
 62
1
100
AcDbLine
 10
-325.035718
 20
253.001602
 30
0.0
 11
-325.035718
 21
247.684212
 31
0.0
  0
LINE
  5
122
100
AcDbEntity
  8
Calque_1
 62
1
100
AcDbLine
 10
-325.035718
 20
247.684212
 30
0.0
 11
-328.035718
 21
247.684212
 31
0.0
  0
LINE
  5
123
100
AcDbEntity
  8
Calque_1
 62
1
100
AcDbLine
 10
-328.035718
 20
247.684212
 30
0.0
 11
-328.035718
 21
242.566822
 31
0.0
  0
LINE
  5
124
100
AcDbEntity
  8
Calque_1
 62
1
100
AcDbLine
 10
-328.035718
 20
242.566822
 30
0.0
 11
-325.035718
 21
242.566822
 31
0.0
  0
LINE
  5
125
100
AcDbEntity
  8
Calque_1
 62
1
100
AcDbLine
 10
-325.035718
 20
242.566822
 30
0.0
 11
-325.035718
 21
237.249432
 31
0.0
  0
LINE
  5
126
100
AcDbEntity
  8
Calque_1
 62
1
100
AcDbLine
 10
-325.035718
 20
237.249432
 30
0.0
 11
-328.035718
 21
237.249432
 31
0.0
  0
LINE
  5
127
100
AcDbEntity
  8
Calque_1
 62
1
100
AcDbLine
 10
-328.035718
 20
237.249432
 30
0.0
 11
-328.035718
 21
232.132042
 31
0.0
  0
LINE
  5
128
100
AcDbEntity
  8
Calque_1
 62
1
100
AcDbLine
 10
-328.035718
 20
232.132042
 30
0.0
 11
-325.035718
 21
232.132042
 31
0.0
  0
LINE
  5
129
100
AcDbEntity
  8
Calque_1
 62
1
100
AcDbLine
 10
-325.035718
 20
232.132042
 30
0.0
 11
-325.035718
 21
226.814642
 31
0.0
  0
LINE
  5
12a
100
AcDbEntity
  8
Calque_1
 62
1
100
AcDbLine
 10
-325.035718
 20
226.814642
 30
0.0
 11
-328.035718
 21
226.814642
 31
0.0
  0
LINE
  5
12b
100
AcDbEntity
  8
Calque_1
 62
1
100
AcDbLine
 10
-328.035718
 20
226.814642
 30
0.0
 11
-328.035718
 21
221.697252
 31
0.0
  0
LINE
  5
12c
100
AcDbEntity
  8
Calque_1
 62
1
100
AcDbLine
 10
-328.035718
 20
221.697252
 30
0.0
 11
-325.035718
 21
221.697252
 31
0.0
  0
LINE
  5
12d
100
AcDbEntity
  8
Calque_1
 62
1
100
AcDbLine
 10
-325.035718
 20
221.697252
 30
0.0
 11
-325.035718
 21
216.379862
 31
0.0
  0
LINE
  5
12e
100
AcDbEntity
  8
Calque_1
 62
1
100
AcDbLine
 10
-325.035718
 20
216.379862
 30
0.0
 11
-328.035718
 21
216.379862
 31
0.0
  0
LINE
  5
12f
100
AcDbEntity
  8
Calque_1
 62
1
100
AcDbLine
 10
-328.035718
 20
216.379862
 30
0.0
 11
-328.035718
 21
211.262472
 31
0.0
  0
LINE
  5
130
100
AcDbEntity
  8
Calque_1
 62
1
100
AcDbLine
 10
-328.035718
 20
211.262472
 30
0.0
 11
-325.035718
 21
211.262472
 31
0.0
  0
LINE
  5
131
100
AcDbEntity
  8
Calque_1
 62
1
100
AcDbLine
 10
-325.035718
 20
211.262472
 30
0.0
 11
-325.035718
 21
205.945082
 31
0.0
  0
LINE
  5
132
100
AcDbEntity
  8
Calque_1
 62
1
100
AcDbLine
 10
-325.035718
 20
205.945082
 30
0.0
 11
-328.035718
 21
205.945082
 31
0.0
  0
LINE
  5
133
100
AcDbEntity
  8
Calque_1
 62
1
100
AcDbLine
 10
-328.035718
 20
205.945082
 30
0.0
 11
-328.035718
 21
200.827692
 31
0.0
  0
LINE
  5
134
100
AcDbEntity
  8
Calque_1
 62
1
100
AcDbLine
 10
-328.035718
 20
200.827692
 30
0.0
 11
-325.035718
 21
200.827692
 31
0.0
  0
LINE
  5
135
100
AcDbEntity
  8
Calque_1
 62
1
100
AcDbLine
 10
-325.035718
 20
200.827692
 30
0.0
 11
-325.035718
 21
195.510302
 31
0.0
  0
LINE
  5
136
100
AcDbEntity
  8
Calque_1
 62
1
100
AcDbLine
 10
-325.035718
 20
195.510302
 30
0.0
 11
-328.035718
 21
195.510302
 31
0.0
  0
LINE
  5
137
100
AcDbEntity
  8
Calque_1
 62
1
100
AcDbLine
 10
-328.035718
 20
195.510302
 30
0.0
 11
-328.035718
 21
190.392912
 31
0.0
  0
LINE
  5
138
100
AcDbEntity
  8
Calque_1
 62
1
100
AcDbLine
 10
-328.035718
 20
190.392912
 30
0.0
 11
-325.035718
 21
190.392912
 31
0.0
  0
LINE
  5
139
100
AcDbEntity
  8
Calque_1
 62
1
100
AcDbLine
 10
-325.035718
 20
190.392912
 30
0.0
 11
-325.035718
 21
185.075512
 31
0.0
  0
LINE
  5
13a
100
AcDbEntity
  8
Calque_1
 62
1
100
AcDbLine
 10
-325.035718
 20
185.075512
 30
0.0
 11
-328.035718
 21
185.075512
 31
0.0
  0
LINE
  5
13b
100
AcDbEntity
  8
Calque_1
 62
1
100
AcDbLine
 10
-328.035718
 20
185.075512
 30
0.0
 11
-328.035718
 21
179.958122
 31
0.0
  0
LINE
  5
13c
100
AcDbEntity
  8
Calque_1
 62
1
100
AcDbLine
 10
-328.035718
 20
179.958122
 30
0.0
 11
-325.035718
 21
179.958122
 31
0.0
  0
LINE
  5
13d
100
AcDbEntity
  8
Calque_1
 62
1
100
AcDbLine
 10
-325.035718
 20
179.958122
 30
0.0
 11
-325.035718
 21
174.640732
 31
0.0
  0
LINE
  5
13e
100
AcDbEntity
  8
Calque_1
 62
1
100
AcDbLine
 10
-325.035718
 20
174.640732
 30
0.0
 11
-328.035718
 21
174.640732
 31
0.0
  0
LINE
  5
13f
100
AcDbEntity
  8
Calque_1
 62
1
100
AcDbLine
 10
-328.035718
 20
174.640732
 30
0.0
 11
-328.035718
 21
169.523342
 31
0.0
  0
LINE
  5
140
100
AcDbEntity
  8
Calque_1
 62
1
100
AcDbLine
 10
-328.035718
 20
169.523342
 30
0.0
 11
-325.035718
 21
169.523342
 31
0.0
  0
LINE
  5
141
100
AcDbEntity
  8
Calque_1
 62
1
100
AcDbLine
 10
-325.035718
 20
169.523342
 30
0.0
 11
-325.035718
 21
164.255952
 31
0.0
  0
LINE
  5
142
100
AcDbEntity
  8
Calque_1
 62
1
100
AcDbLine
 10
-325.035718
 20
164.255952
 30
0.0
 11
-330.085718
 21
164.255952
 31
0.0
  0
LINE
  5
143
100
AcDbEntity
  8
Calque_1
 62
1
100
AcDbLine
 10
-330.085718
 20
164.255952
 30
0.0
 11
-330.085718
 21
167.255952
 31
0.0
  0
LINE
  5
144
100
AcDbEntity
  8
Calque_1
 62
1
100
AcDbLine
 10
-330.085718
 20
167.255952
 30
0.0
 11
-334.985718
 21
167.255952
 31
0.0
  0
LINE
  5
145
100
AcDbEntity
  8
Calque_1
 62
1
100
AcDbLine
 10
-334.985718
 20
167.255952
 30
0.0
 11
-334.985718
 21
164.255952
 31
0.0
  0
LINE
  5
146
100
AcDbEntity
  8
Calque_1
 62
1
100
AcDbLine
 10
-334.985718
 20
164.255952
 30
0.0
 11
-340.085718
 21
164.255952
 31
0.0
  0
LINE
  5
147
100
AcDbEntity
  8
Calque_1
 62
1
100
AcDbLine
 10
-340.085718
 20
164.255952
 30
0.0
 11
-340.085718
 21
167.255952
 31
0.0
  0
LINE
  5
148
100
AcDbEntity
  8
Calque_1
 62
1
100
AcDbLine
 10
-340.085718
 20
167.255952
 30
0.0
 11
-344.985718
 21
167.255952
 31
0.0
  0
LINE
  5
149
100
AcDbEntity
  8
Calque_1
 62
1
100
AcDbLine
 10
-344.985718
 20
167.255952
 30
0.0
 11
-344.985718
 21
164.255952
 31
0.0
  0
LINE
  5
14a
100
AcDbEntity
  8
Calque_1
 62
1
100
AcDbLine
 10
-344.985718
 20
164.255952
 30
0.0
 11
-350.085718
 21
164.255952
 31
0.0
  0
LINE
  5
14b
100
AcDbEntity
  8
Calque_1
 62
1
100
AcDbLine
 10
-350.085718
 20
164.255952
 30
0.0
 11
-350.085718
 21
167.255952
 31
0.0
  0
LINE
  5
14c
100
AcDbEntity
  8
Calque_1
 62
1
100
AcDbLine
 10
-350.085718
 20
167.255952
 30
0.0
 11
-354.985718
 21
167.255952
 31
0.0
  0
LINE
  5
14d
100
AcDbEntity
  8
Calque_1
 62
1
100
AcDbLine
 10
-354.985718
 20
167.255952
 30
0.0
 11
-354.985718
 21
164.255952
 31
0.0
  0
LINE
  5
14e
100
AcDbEntity
  8
Calque_1
 62
1
100
AcDbLine
 10
-354.985718
 20
164.255952
 30
0.0
 11
-360.085718
 21
164.255952
 31
0.0
  0
LINE
  5
14f
100
AcDbEntity
  8
Calque_1
 62
1
100
AcDbLine
 10
-360.085718
 20
164.255952
 30
0.0
 11
-360.085718
 21
167.255952
 31
0.0
  0
LINE
  5
150
100
AcDbEntity
  8
Calque_1
 62
1
100
AcDbLine
 10
-360.085718
 20
167.255952
 30
0.0
 11
-364.985718
 21
167.255952
 31
0.0
  0
LINE
  5
151
100
AcDbEntity
  8
Calque_1
 62
1
100
AcDbLine
 10
-364.985718
 20
167.255952
 30
0.0
 11
-364.985718
 21
164.255952
 31
0.0
  0
LINE
  5
152
100
AcDbEntity
  8
Calque_1
 62
1
100
AcDbLine
 10
-364.985718
 20
164.255952
 30
0.0
 11
-370.085718
 21
164.255952
 31
0.0
  0
LINE
  5
153
100
AcDbEntity
  8
Calque_1
 62
1
100
AcDbLine
 10
-370.085718
 20
164.255952
 30
0.0
 11
-370.085718
 21
167.255952
 31
0.0
  0
LINE
  5
154
100
AcDbEntity
  8
Calque_1
 62
1
100
AcDbLine
 10
-370.085718
 20
167.255952
 30
0.0
 11
-374.985718
 21
167.255952
 31
0.0
  0
LINE
  5
155
100
AcDbEntity
  8
Calque_1
 62
1
100
AcDbLine
 10
-374.985718
 20
167.255952
 30
0.0
 11
-374.985718
 21
164.255952
 31
0.0
  0
LINE
  5
156
100
AcDbEntity
  8
Calque_1
 62
1
100
AcDbLine
 10
-374.985718
 20
164.255952
 30
0.0
 11
-380.035718
 21
164.255952
 31
0.0
  0
LINE
  5
157
100
AcDbEntity
  8
Calque_1
 62
1
100
AcDbLine
 10
-380.035718
 20
164.255952
 30
0.0
 11
-380.035718
 21
169.523342
 31
0.0
  0
LINE
  5
158
100
AcDbEntity
  8
Calque_1
 62
1
100
AcDbLine
 10
-380.035718
 20
169.523342
 30
0.0
 11
-377.035718
 21
169.523342
 31
0.0
  0
LINE
  5
159
100
AcDbEntity
  8
Calque_1
 62
1
100
AcDbLine
 10
-377.035718
 20
169.523342
 30
0.0
 11
-377.035718
 21
174.640732
 31
0.0
  0
LINE
  5
15a
100
AcDbEntity
  8
Calque_1
 62
1
100
AcDbLine
 10
-377.035718
 20
174.640732
 30
0.0
 11
-380.035718
 21
174.640732
 31
0.0
  0
LINE
  5
15b
100
AcDbEntity
  8
Calque_1
 62
1
100
AcDbLine
 10
-380.035718
 20
174.640732
 30
0.0
 11
-380.035718
 21
179.958122
 31
0.0
  0
LINE
  5
15c
100
AcDbEntity
  8
Calque_1
 62
1
100
AcDbLine
 10
-380.035718
 20
179.958122
 30
0.0
 11
-377.035718
 21
179.958122
 31
0.0
  0
LINE
  5
15d
100
AcDbEntity
  8
Calque_1
 62
1
100
AcDbLine
 10
-377.035718
 20
179.958122
 30
0.0
 11
-377.035718
 21
185.075512
 31
0.0
  0
LINE
  5
15e
100
AcDbEntity
  8
Calque_1
 62
1
100
AcDbLine
 10
-377.035718
 20
185.075512
 30
0.0
 11
-380.035718
 21
185.075512
 31
0.0
  0
LINE
  5
15f
100
AcDbEntity
  8
Calque_1
 62
1
100
AcDbLine
 10
-380.035718
 20
185.075512
 30
0.0
 11
-380.035718
 21
190.392912
 31
0.0
  0
LINE
  5
160
100
AcDbEntity
  8
Calque_1
 62
1
100
AcDbLine
 10
-380.035718
 20
190.392912
 30
0.0
 11
-377.035718
 21
190.392912
 31
0.0
  0
LINE
  5
161
100
AcDbEntity
  8
Calque_1
 62
1
100
AcDbLine
 10
-377.035718
 20
190.392912
 30
0.0
 11
-377.035718
 21
195.510302
 31
0.0
  0
LINE
  5
162
100
AcDbEntity
  8
Calque_1
 62
1
100
AcDbLine
 10
-377.035718
 20
195.510302
 30
0.0
 11
-380.035718
 21
195.510302
 31
0.0
  0
LINE
  5
163
100
AcDbEntity
  8
Calque_1
 62
1
100
AcDbLine
 10
-380.035718
 20
195.510302
 30
0.0
 11
-380.035718
 21
200.827692
 31
0.0
  0
LINE
  5
164
100
AcDbEntity
  8
Calque_1
 62
1
100
AcDbLine
 10
-380.035718
 20
200.827692
 30
0.0
 11
-377.035718
 21
200.827692
 31
0.0
  0
LINE
  5
165
100
AcDbEntity
  8
Calque_1
 62
1
100
AcDbLine
 10
-377.035718
 20
200.827692
 30
0.0
 11
-377.035718
 21
205.945082
 31
0.0
  0
LINE
  5
166
100
AcDbEntity
  8
Calque_1
 62
1
100
AcDbLine
 10
-377.035718
 20
205.945082
 30
0.0
 11
-380.035718
 21
205.945082
 31
0.0
  0
LINE
  5
167
100
AcDbEntity
  8
Calque_1
 62
1
100
AcDbLine
 10
-380.035718
 20
205.945082
 30
0.0
 11
-380.035718
 21
211.262472
 31
0.0
  0
LINE
  5
168
100
AcDbEntity
  8
Calque_1
 62
1
100
AcDbLine
 10
-380.035718
 20
211.262472
 30
0.0
 11
-377.035718
 21
211.262472
 31
0.0
  0
LINE
  5
169
100
AcDbEntity
  8
Calque_1
 62
1
100
AcDbLine
 10
-377.035718
 20
211.262472
 30
0.0
 11
-377.035718
 21
216.379862
 31
0.0
  0
LINE
  5
16a
100
AcDbEntity
  8
Calque_1
 62
1
100
AcDbLine
 10
-377.035718
 20
216.379862
 30
0.0
 11
-380.035718
 21
216.379862
 31
0.0
  0
LINE
  5
16b
100
AcDbEntity
  8
Calque_1
 62
1
100
AcDbLine
 10
-380.035718
 20
216.379862
 30
0.0
 11
-380.035718
 21
221.697252
 31
0.0
  0
LINE
  5
16c
100
AcDbEntity
  8
Calque_1
 62
1
100
AcDbLine
 10
-380.035718
 20
221.697252
 30
0.0
 11
-377.035718
 21
221.697252
 31
0.0
  0
LINE
  5
16d
100
AcDbEntity
  8
Calque_1
 62
1
100
AcDbLine
 10
-377.035718
 20
221.697252
 30
0.0
 11
-377.035718
 21
226.814642
 31
0.0
  0
LINE
  5
16e
100
AcDbEntity
  8
Calque_1
 62
1
100
AcDbLine
 10
-377.035718
 20
226.814642
 30
0.0
 11
-380.035718
 21
226.814642
 31
0.0
  0
LINE
  5
16f
100
AcDbEntity
  8
Calque_1
 62
1
100
AcDbLine
 10
-380.035718
 20
226.814642
 30
0.0
 11
-380.035718
 21
232.132042
 31
0.0
  0
LINE
  5
170
100
AcDbEntity
  8
Calque_1
 62
1
100
AcDbLine
 10
-380.035718
 20
232.132042
 30
0.0
 11
-377.035718
 21
232.132042
 31
0.0
  0
LINE
  5
171
100
AcDbEntity
  8
Calque_1
 62
1
100
AcDbLine
 10
-377.035718
 20
232.132042
 30
0.0
 11
-377.035718
 21
237.249432
 31
0.0
  0
LINE
  5
172
100
AcDbEntity
  8
Calque_1
 62
1
100
AcDbLine
 10
-377.035718
 20
237.249432
 30
0.0
 11
-380.035718
 21
237.249432
 31
0.0
  0
LINE
  5
173
100
AcDbEntity
  8
Calque_1
 62
1
100
AcDbLine
 10
-380.035718
 20
237.249432
 30
0.0
 11
-380.035718
 21
242.566822
 31
0.0
  0
LINE
  5
174
100
AcDbEntity
  8
Calque_1
 62
1
100
AcDbLine
 10
-380.035718
 20
242.566822
 30
0.0
 11
-377.035718
 21
242.566822
 31
0.0
  0
LINE
  5
175
100
AcDbEntity
  8
Calque_1
 62
1
100
AcDbLine
 10
-377.035718
 20
242.566822
 30
0.0
 11
-377.035718
 21
247.684212
 31
0.0
  0
LINE
  5
176
100
AcDbEntity
  8
Calque_1
 62
1
100
AcDbLine
 10
-377.035718
 20
247.684212
 30
0.0
 11
-380.035718
 21
247.684212
 31
0.0
  0
LINE
  5
177
100
AcDbEntity
  8
Calque_1
 62
1
100
AcDbLine
 10
-380.035718
 20
247.684212
 30
0.0
 11
-380.035718
 21
253.001602
 31
0.0
  0
LINE
  5
178
100
AcDbEntity
  8
Calque_1
 62
1
100
AcDbLine
 10
-380.035718
 20
253.001602
 30
0.0
 11
-377.035718
 21
253.001602
 31
0.0
  0
LINE
  5
179
100
AcDbEntity
  8
Calque_1
 62
1
100
AcDbLine
 10
-377.035718
 20
253.001602
 30
0.0
 11
-377.035718
 21
258.118992
 31
0.0
  0
LINE
  5
17a
100
AcDbEntity
  8
Calque_1
 62
1
100
AcDbLine
 10
-377.035718
 20
258.118992
 30
0.0
 11
-380.035718
 21
258.118992
 31
0.0
  0
LINE
  5
17b
100
AcDbEntity
  8
Calque_1
 62
1
100
AcDbLine
 10
-380.035718
 20
258.118992
 30
0.0
 11
-380.035718
 21
263.436382
 31
0.0
  0
LINE
  5
17c
100
AcDbEntity
  8
Calque_1
 62
1
100
AcDbLine
 10
-380.035718
 20
263.436382
 30
0.0
 11
-377.035718
 21
263.436382
 31
0.0
  0
LINE
  5
17d
100
AcDbEntity
  8
Calque_1
 62
1
100
AcDbLine
 10
-377.035718
 20
263.436382
 30
0.0
 11
-377.035718
 21
268.553782
 31
0.0
  0
LINE
  5
17e
100
AcDbEntity
  8
Calque_1
 62
1
100
AcDbLine
 10
-377.035718
 20
268.553782
 30
0.0
 11
-380.035718
 21
268.553782
 31
0.0
  0
LINE
  5
17f
100
AcDbEntity
  8
Calque_1
 62
1
100
AcDbLine
 10
-380.035718
 20
268.553782
 30
0.0
 11
-380.035718
 21
273.871172
 31
0.0
  0
LINE
  5
180
100
AcDbEntity
  8
Calque_1
 62
1
100
AcDbLine
 10
-380.035718
 20
273.871172
 30
0.0
 11
-377.035718
 21
273.871172
 31
0.0
  0
LINE
  5
181
100
AcDbEntity
  8
Calque_1
 62
1
100
AcDbLine
 10
-377.035718
 20
273.871172
 30
0.0
 11
-377.035718
 21
278.988562
 31
0.0
  0
LINE
  5
182
100
AcDbEntity
  8
Calque_1
 62
1
100
AcDbLine
 10
-377.035718
 20
278.988562
 30
0.0
 11
-380.035718
 21
278.988562
 31
0.0
  0
LINE
  5
183
100
AcDbEntity
  8
Calque_1
 62
1
100
AcDbLine
 10
-380.035718
 20
278.988562
 30
0.0
 11
-380.035718
 21
284.255952
 31
0.0
  0
LINE
  5
184
100
AcDbEntity
  8
Calque_1
 62
1
100
AcDbLine
 10
-322.035718
 20
284.255952
 30
0.0
 11
-316.985718
 21
284.255952
 31
0.0
  0
LINE
  5
185
100
AcDbEntity
  8
Calque_1
 62
1
100
AcDbLine
 10
-316.985718
 20
284.255952
 30
0.0
 11
-316.985718
 21
281.255952
 31
0.0
  0
LINE
  5
186
100
AcDbEntity
  8
Calque_1
 62
1
100
AcDbLine
 10
-316.985718
 20
281.255952
 30
0.0
 11
-312.085718
 21
281.255952
 31
0.0
  0
LINE
  5
187
100
AcDbEntity
  8
Calque_1
 62
1
100
AcDbLine
 10
-312.085718
 20
281.255952
 30
0.0
 11
-312.085718
 21
284.255952
 31
0.0
  0
LINE
  5
188
100
AcDbEntity
  8
Calque_1
 62
1
100
AcDbLine
 10
-312.085718
 20
284.255952
 30
0.0
 11
-306.985718
 21
284.255952
 31
0.0
  0
LINE
  5
189
100
AcDbEntity
  8
Calque_1
 62
1
100
AcDbLine
 10
-306.985718
 20
284.255952
 30
0.0
 11
-306.985718
 21
281.255952
 31
0.0
  0
LINE
  5
18a
100
AcDbEntity
  8
Calque_1
 62
1
100
AcDbLine
 10
-306.985718
 20
281.255952
 30
0.0
 11
-302.085718
 21
281.255952
 31
0.0
  0
LINE
  5
18b
100
AcDbEntity
  8
Calque_1
 62
1
100
AcDbLine
 10
-302.085718
 20
281.255952
 30
0.0
 11
-302.085718
 21
284.255952
 31
0.0
  0
LINE
  5
18c
100
AcDbEntity
  8
Calque_1
 62
1
100
AcDbLine
 10
-302.085718
 20
284.255952
 30
0.0
 11
-296.985718
 21
284.255952
 31
0.0
  0
LINE
  5
18d
100
AcDbEntity
  8
Calque_1
 62
1
100
AcDbLine
 10
-296.985718
 20
284.255952
 30
0.0
 11
-296.985718
 21
281.255952
 31
0.0
  0
LINE
  5
18e
100
AcDbEntity
  8
Calque_1
 62
1
100
AcDbLine
 10
-296.985718
 20
281.255952
 30
0.0
 11
-292.085718
 21
281.255952
 31
0.0
  0
LINE
  5
18f
100
AcDbEntity
  8
Calque_1
 62
1
100
AcDbLine
 10
-292.085718
 20
281.255952
 30
0.0
 11
-292.085718
 21
284.255952
 31
0.0
  0
LINE
  5
190
100
AcDbEntity
  8
Calque_1
 62
1
100
AcDbLine
 10
-292.085718
 20
284.255952
 30
0.0
 11
-286.985718
 21
284.255952
 31
0.0
  0
LINE
  5
191
100
AcDbEntity
  8
Calque_1
 62
1
100
AcDbLine
 10
-286.985718
 20
284.255952
 30
0.0
 11
-286.985718
 21
281.255952
 31
0.0
  0
LINE
  5
192
100
AcDbEntity
  8
Calque_1
 62
1
100
AcDbLine
 10
-286.985718
 20
281.255952
 30
0.0
 11
-282.085720
 21
281.255952
 31
0.0
  0
LINE
  5
193
100
AcDbEntity
  8
Calque_1
 62
1
100
AcDbLine
 10
-282.085720
 20
281.255952
 30
0.0
 11
-282.085720
 21
284.255952
 31
0.0
  0
LINE
  5
194
100
AcDbEntity
  8
Calque_1
 62
1
100
AcDbLine
 10
-282.085720
 20
284.255952
 30
0.0
 11
-276.985720
 21
284.255952
 31
0.0
  0
LINE
  5
195
100
AcDbEntity
  8
Calque_1
 62
1
100
AcDbLine
 10
-276.985720
 20
284.255952
 30
0.0
 11
-276.985720
 21
281.255952
 31
0.0
  0
LINE
  5
196
100
AcDbEntity
  8
Calque_1
 62
1
100
AcDbLine
 10
-276.985720
 20
281.255952
 30
0.0
 11
-272.085720
 21
281.255952
 31
0.0
  0
LINE
  5
197
100
AcDbEntity
  8
Calque_1
 62
1
100
AcDbLine
 10
-272.085720
 20
281.255952
 30
0.0
 11
-272.085720
 21
284.255952
 31
0.0
  0
LINE
  5
198
100
AcDbEntity
  8
Calque_1
 62
1
100
AcDbLine
 10
-272.085720
 20
284.255952
 30
0.0
 11
-267.035720
 21
284.255952
 31
0.0
  0
LINE
  5
199
100
AcDbEntity
  8
Calque_1
 62
1
100
AcDbLine
 10
-267.035720
 20
284.255952
 30
0.0
 11
-267.035720
 21
278.988562
 31
0.0
  0
LINE
  5
19a
100
AcDbEntity
  8
Calque_1
 62
1
100
AcDbLine
 10
-267.035720
 20
278.988562
 30
0.0
 11
-270.035720
 21
278.988562
 31
0.0
  0
LINE
  5
19b
100
AcDbEntity
  8
Calque_1
 62
1
100
AcDbLine
 10
-270.035720
 20
278.988562
 30
0.0
 11
-270.035720
 21
273.871172
 31
0.0
  0
LINE
  5
19c
100
AcDbEntity
  8
Calque_1
 62
1
100
AcDbLine
 10
-270.035720
 20
273.871172
 30
0.0
 11
-267.035720
 21
273.871172
 31
0.0
  0
LINE
  5
19d
100
AcDbEntity
  8
Calque_1
 62
1
100
AcDbLine
 10
-267.035720
 20
273.871172
 30
0.0
 11
-267.035720
 21
268.553782
 31
0.0
  0
LINE
  5
19e
100
AcDbEntity
  8
Calque_1
 62
1
100
AcDbLine
 10
-267.035720
 20
268.553782
 30
0.0
 11
-270.035720
 21
268.553782
 31
0.0
  0
LINE
  5
19f
100
AcDbEntity
  8
Calque_1
 62
1
100
AcDbLine
 10
-270.035720
 20
268.553782
 30
0.0
 11
-270.035720
 21
263.436382
 31
0.0
  0
LINE
  5
1a0
100
AcDbEntity
  8
Calque_1
 62
1
100
AcDbLine
 10
-270.035720
 20
263.436382
 30
0.0
 11
-267.035720
 21
263.436382
 31
0.0
  0
LINE
  5
1a1
100
AcDbEntity
  8
Calque_1
 62
1
100
AcDbLine
 10
-267.035720
 20
263.436382
 30
0.0
 11
-267.035720
 21
258.118992
 31
0.0
  0
LINE
  5
1a2
100
AcDbEntity
  8
Calque_1
 62
1
100
AcDbLine
 10
-267.035720
 20
258.118992
 30
0.0
 11
-270.035720
 21
258.118992
 31
0.0
  0
LINE
  5
1a3
100
AcDbEntity
  8
Calque_1
 62
1
100
AcDbLine
 10
-270.035720
 20
258.118992
 30
0.0
 11
-270.035720
 21
253.001602
 31
0.0
  0
LINE
  5
1a4
100
AcDbEntity
  8
Calque_1
 62
1
100
AcDbLine
 10
-270.035720
 20
253.001602
 30
0.0
 11
-267.035720
 21
253.001602
 31
0.0
  0
LINE
  5
1a5
100
AcDbEntity
  8
Calque_1
 62
1
100
AcDbLine
 10
-267.035720
 20
253.001602
 30
0.0
 11
-267.035720
 21
247.684212
 31
0.0
  0
LINE
  5
1a6
100
AcDbEntity
  8
Calque_1
 62
1
100
AcDbLine
 10
-267.035720
 20
247.684212
 30
0.0
 11
-270.035720
 21
247.684212
 31
0.0
  0
LINE
  5
1a7
100
AcDbEntity
  8
Calque_1
 62
1
100
AcDbLine
 10
-270.035720
 20
247.684212
 30
0.0
 11
-270.035720
 21
242.566822
 31
0.0
  0
LINE
  5
1a8
100
AcDbEntity
  8
Calque_1
 62
1
100
AcDbLine
 10
-270.035720
 20
242.566822
 30
0.0
 11
-267.035720
 21
242.566822
 31
0.0
  0
LINE
  5
1a9
100
AcDbEntity
  8
Calque_1
 62
1
100
AcDbLine
 10
-267.035720
 20
242.566822
 30
0.0
 11
-267.035720
 21
237.249432
 31
0.0
  0
LINE
  5
1aa
100
AcDbEntity
  8
Calque_1
 62
1
100
AcDbLine
 10
-267.035720
 20
237.249432
 30
0.0
 11
-270.035720
 21
237.249432
 31
0.0
  0
LINE
  5
1ab
100
AcDbEntity
  8
Calque_1
 62
1
100
AcDbLine
 10
-270.035720
 20
237.249432
 30
0.0
 11
-270.035720
 21
232.132042
 31
0.0
  0
LINE
  5
1ac
100
AcDbEntity
  8
Calque_1
 62
1
100
AcDbLine
 10
-270.035720
 20
232.132042
 30
0.0
 11
-267.035720
 21
232.132042
 31
0.0
  0
LINE
  5
1ad
100
AcDbEntity
  8
Calque_1
 62
1
100
AcDbLine
 10
-267.035720
 20
232.132042
 30
0.0
 11
-267.035720
 21
226.814642
 31
0.0
  0
LINE
  5
1ae
100
AcDbEntity
  8
Calque_1
 62
1
100
AcDbLine
 10
-267.035720
 20
226.814642
 30
0.0
 11
-270.035720
 21
226.814642
 31
0.0
  0
LINE
  5
1af
100
AcDbEntity
  8
Calque_1
 62
1
100
AcDbLine
 10
-270.035720
 20
226.814642
 30
0.0
 11
-270.035720
 21
221.697252
 31
0.0
  0
LINE
  5
1b0
100
AcDbEntity
  8
Calque_1
 62
1
100
AcDbLine
 10
-270.035720
 20
221.697252
 30
0.0
 11
-267.035720
 21
221.697252
 31
0.0
  0
LINE
  5
1b1
100
AcDbEntity
  8
Calque_1
 62
1
100
AcDbLine
 10
-267.035720
 20
221.697252
 30
0.0
 11
-267.035720
 21
216.379862
 31
0.0
  0
LINE
  5
1b2
100
AcDbEntity
  8
Calque_1
 62
1
100
AcDbLine
 10
-267.035720
 20
216.379862
 30
0.0
 11
-270.035720
 21
216.379862
 31
0.0
  0
LINE
  5
1b3
100
AcDbEntity
  8
Calque_1
 62
1
100
AcDbLine
 10
-270.035720
 20
216.379862
 30
0.0
 11
-270.035720
 21
211.262472
 31
0.0
  0
LINE
  5
1b4
100
AcDbEntity
  8
Calque_1
 62
1
100
AcDbLine
 10
-270.035720
 20
211.262472
 30
0.0
 11
-267.035720
 21
211.262472
 31
0.0
  0
LINE
  5
1b5
100
AcDbEntity
  8
Calque_1
 62
1
100
AcDbLine
 10
-267.035720
 20
211.262472
 30
0.0
 11
-267.035720
 21
205.945082
 31
0.0
  0
LINE
  5
1b6
100
AcDbEntity
  8
Calque_1
 62
1
100
AcDbLine
 10
-267.035720
 20
205.945082
 30
0.0
 11
-270.035720
 21
205.945082
 31
0.0
  0
LINE
  5
1b7
100
AcDbEntity
  8
Calque_1
 62
1
100
AcDbLine
 10
-270.035720
 20
205.945082
 30
0.0
 11
-270.035720
 21
200.827692
 31
0.0
  0
LINE
  5
1b8
100
AcDbEntity
  8
Calque_1
 62
1
100
AcDbLine
 10
-270.035720
 20
200.827692
 30
0.0
 11
-267.035720
 21
200.827692
 31
0.0
  0
LINE
  5
1b9
100
AcDbEntity
  8
Calque_1
 62
1
100
AcDbLine
 10
-267.035720
 20
200.827692
 30
0.0
 11
-267.035720
 21
195.510302
 31
0.0
  0
LINE
  5
1ba
100
AcDbEntity
  8
Calque_1
 62
1
100
AcDbLine
 10
-267.035720
 20
195.510302
 30
0.0
 11
-270.035720
 21
195.510302
 31
0.0
  0
LINE
  5
1bb
100
AcDbEntity
  8
Calque_1
 62
1
100
AcDbLine
 10
-270.035720
 20
195.510302
 30
0.0
 11
-270.035720
 21
190.392912
 31
0.0
  0
LINE
  5
1bc
100
AcDbEntity
  8
Calque_1
 62
1
100
AcDbLine
 10
-270.035720
 20
190.392912
 30
0.0
 11
-267.035720
 21
190.392912
 31
0.0
  0
LINE
  5
1bd
100
AcDbEntity
  8
Calque_1
 62
1
100
AcDbLine
 10
-267.035720
 20
190.392912
 30
0.0
 11
-267.035720
 21
185.075512
 31
0.0
  0
LINE
  5
1be
100
AcDbEntity
  8
Calque_1
 62
1
100
AcDbLine
 10
-267.035720
 20
185.075512
 30
0.0
 11
-270.035720
 21
185.075512
 31
0.0
  0
LINE
  5
1bf
100
AcDbEntity
  8
Calque_1
 62
1
100
AcDbLine
 10
-270.035720
 20
185.075512
 30
0.0
 11
-270.035720
 21
179.958122
 31
0.0
  0
LINE
  5
1c0
100
AcDbEntity
  8
Calque_1
 62
1
100
AcDbLine
 10
-270.035720
 20
179.958122
 30
0.0
 11
-267.035720
 21
179.958122
 31
0.0
  0
LINE
  5
1c1
100
AcDbEntity
  8
Calque_1
 62
1
100
AcDbLine
 10
-267.035720
 20
179.958122
 30
0.0
 11
-267.035720
 21
174.640732
 31
0.0
  0
LINE
  5
1c2
100
AcDbEntity
  8
Calque_1
 62
1
100
AcDbLine
 10
-267.035720
 20
174.640732
 30
0.0
 11
-270.035720
 21
174.640732
 31
0.0
  0
LINE
  5
1c3
100
AcDbEntity
  8
Calque_1
 62
1
100
AcDbLine
 10
-270.035720
 20
174.640732
 30
0.0
 11
-270.035720
 21
169.523342
 31
0.0
  0
LINE
  5
1c4
100
AcDbEntity
  8
Calque_1
 62
1
100
AcDbLine
 10
-270.035720
 20
169.523342
 30
0.0
 11
-267.035720
 21
169.523342
 31
0.0
  0
LINE
  5
1c5
100
AcDbEntity
  8
Calque_1
 62
1
100
AcDbLine
 10
-267.035720
 20
169.523342
 30
0.0
 11
-267.035720
 21
164.255952
 31
0.0
  0
LINE
  5
1c6
100
AcDbEntity
  8
Calque_1
 62
1
100
AcDbLine
 10
-267.035720
 20
164.255952
 30
0.0
 11
-272.085720
 21
164.255952
 31
0.0
  0
LINE
  5
1c7
100
AcDbEntity
  8
Calque_1
 62
1
100
AcDbLine
 10
-272.085720
 20
164.255952
 30
0.0
 11
-272.085720
 21
167.255952
 31
0.0
  0
LINE
  5
1c8
100
AcDbEntity
  8
Calque_1
 62
1
100
AcDbLine
 10
-272.085720
 20
167.255952
 30
0.0
 11
-276.985720
 21
167.255952
 31
0.0
  0
LINE
  5
1c9
100
AcDbEntity
  8
Calque_1
 62
1
100
AcDbLine
 10
-276.985720
 20
167.255952
 30
0.0
 11
-276.985720
 21
164.255952
 31
0.0
  0
LINE
  5
1ca
100
AcDbEntity
  8
Calque_1
 62
1
100
AcDbLine
 10
-276.985720
 20
164.255952
 30
0.0
 11
-282.085720
 21
164.255952
 31
0.0
  0
LINE
  5
1cb
100
AcDbEntity
  8
Calque_1
 62
1
100
AcDbLine
 10
-282.085720
 20
164.255952
 30
0.0
 11
-282.085720
 21
167.255952
 31
0.0
  0
LINE
  5
1cc
100
AcDbEntity
  8
Calque_1
 62
1
100
AcDbLine
 10
-282.085720
 20
167.255952
 30
0.0
 11
-286.985718
 21
167.255952
 31
0.0
  0
LINE
  5
1cd
100
AcDbEntity
  8
Calque_1
 62
1
100
AcDbLine
 10
-286.985718
 20
167.255952
 30
0.0
 11
-286.985718
 21
164.255952
 31
0.0
  0
LINE
  5
1ce
100
AcDbEntity
  8
Calque_1
 62
1
100
AcDbLine
 10
-286.985718
 20
164.255952
 30
0.0
 11
-292.085718
 21
164.255952
 31
0.0
  0
LINE
  5
1cf
100
AcDbEntity
  8
Calque_1
 62
1
100
AcDbLine
 10
-292.085718
 20
164.255952
 30
0.0
 11
-292.085718
 21
167.255952
 31
0.0
  0
LINE
  5
1d0
100
AcDbEntity
  8
Calque_1
 62
1
100
AcDbLine
 10
-292.085718
 20
167.255952
 30
0.0
 11
-296.985718
 21
167.255952
 31
0.0
  0
LINE
  5
1d1
100
AcDbEntity
  8
Calque_1
 62
1
100
AcDbLine
 10
-296.985718
 20
167.255952
 30
0.0
 11
-296.985718
 21
164.255952
 31
0.0
  0
LINE
  5
1d2
100
AcDbEntity
  8
Calque_1
 62
1
100
AcDbLine
 10
-296.985718
 20
164.255952
 30
0.0
 11
-302.085718
 21
164.255952
 31
0.0
  0
LINE
  5
1d3
100
AcDbEntity
  8
Calque_1
 62
1
100
AcDbLine
 10
-302.085718
 20
164.255952
 30
0.0
 11
-302.085718
 21
167.255952
 31
0.0
  0
LINE
  5
1d4
100
AcDbEntity
  8
Calque_1
 62
1
100
AcDbLine
 10
-302.085718
 20
167.255952
 30
0.0
 11
-306.985718
 21
167.255952
 31
0.0
  0
LINE
  5
1d5
100
AcDbEntity
  8
Calque_1
 62
1
100
AcDbLine
 10
-306.985718
 20
167.255952
 30
0.0
 11
-306.985718
 21
164.255952
 31
0.0
  0
LINE
  5
1d6
100
AcDbEntity
  8
Calque_1
 62
1
100
AcDbLine
 10
-306.985718
 20
164.255952
 30
0.0
 11
-312.085718
 21
164.255952
 31
0.0
  0
LINE
  5
1d7
100
AcDbEntity
  8
Calque_1
 62
1
100
AcDbLine
 10
-312.085718
 20
164.255952
 30
0.0
 11
-312.085718
 21
167.255952
 31
0.0
  0
LINE
  5
1d8
100
AcDbEntity
  8
Calque_1
 62
1
100
AcDbLine
 10
-312.085718
 20
167.255952
 30
0.0
 11
-316.985718
 21
167.255952
 31
0.0
  0
LINE
  5
1d9
100
AcDbEntity
  8
Calque_1
 62
1
100
AcDbLine
 10
-316.985718
 20
167.255952
 30
0.0
 11
-316.985718
 21
164.255952
 31
0.0
  0
LINE
  5
1da
100
AcDbEntity
  8
Calque_1
 62
1
100
AcDbLine
 10
-316.985718
 20
164.255952
 30
0.0
 11
-322.035718
 21
164.255952
 31
0.0
  0
LINE
  5
1db
100
AcDbEntity
  8
Calque_1
 62
1
100
AcDbLine
 10
-322.035718
 20
164.255952
 30
0.0
 11
-322.035718
 21
169.523342
 31
0.0
  0
LINE
  5
1dc
100
AcDbEntity
  8
Calque_1
 62
1
100
AcDbLine
 10
-322.035718
 20
169.523342
 30
0.0
 11
-319.035718
 21
169.523342
 31
0.0
  0
LINE
  5
1dd
100
AcDbEntity
  8
Calque_1
 62
1
100
AcDbLine
 10
-319.035718
 20
169.523342
 30
0.0
 11
-319.035718
 21
174.640732
 31
0.0
  0
LINE
  5
1de
100
AcDbEntity
  8
Calque_1
 62
1
100
AcDbLine
 10
-319.035718
 20
174.640732
 30
0.0
 11
-322.035718
 21
174.640732
 31
0.0
  0
LINE
  5
1df
100
AcDbEntity
  8
Calque_1
 62
1
100
AcDbLine
 10
-322.035718
 20
174.640732
 30
0.0
 11
-322.035718
 21
179.958122
 31
0.0
  0
LINE
  5
1e0
100
AcDbEntity
  8
Calque_1
 62
1
100
AcDbLine
 10
-322.035718
 20
179.958122
 30
0.0
 11
-319.035718
 21
179.958122
 31
0.0
  0
LINE
  5
1e1
100
AcDbEntity
  8
Calque_1
 62
1
100
AcDbLine
 10
-319.035718
 20
179.958122
 30
0.0
 11
-319.035718
 21
185.075512
 31
0.0
  0
LINE
  5
1e2
100
AcDbEntity
  8
Calque_1
 62
1
100
AcDbLine
 10
-319.035718
 20
185.075512
 30
0.0
 11
-322.035718
 21
185.075512
 31
0.0
  0
LINE
  5
1e3
100
AcDbEntity
  8
Calque_1
 62
1
100
AcDbLine
 10
-322.035718
 20
185.075512
 30
0.0
 11
-322.035718
 21
190.392912
 31
0.0
  0
LINE
  5
1e4
100
AcDbEntity
  8
Calque_1
 62
1
100
AcDbLine
 10
-322.035718
 20
190.392912
 30
0.0
 11
-319.035718
 21
190.392912
 31
0.0
  0
LINE
  5
1e5
100
AcDbEntity
  8
Calque_1
 62
1
100
AcDbLine
 10
-319.035718
 20
190.392912
 30
0.0
 11
-319.035718
 21
195.510302
 31
0.0
  0
LINE
  5
1e6
100
AcDbEntity
  8
Calque_1
 62
1
100
AcDbLine
 10
-319.035718
 20
195.510302
 30
0.0
 11
-322.035718
 21
195.510302
 31
0.0
  0
LINE
  5
1e7
100
AcDbEntity
  8
Calque_1
 62
1
100
AcDbLine
 10
-322.035718
 20
195.510302
 30
0.0
 11
-322.035718
 21
200.827692
 31
0.0
  0
LINE
  5
1e8
100
AcDbEntity
  8
Calque_1
 62
1
100
AcDbLine
 10
-322.035718
 20
200.827692
 30
0.0
 11
-319.035718
 21
200.827692
 31
0.0
  0
LINE
  5
1e9
100
AcDbEntity
  8
Calque_1
 62
1
100
AcDbLine
 10
-319.035718
 20
200.827692
 30
0.0
 11
-319.035718
 21
205.945082
 31
0.0
  0
LINE
  5
1ea
100
AcDbEntity
  8
Calque_1
 62
1
100
AcDbLine
 10
-319.035718
 20
205.945082
 30
0.0
 11
-322.035718
 21
205.945082
 31
0.0
  0
LINE
  5
1eb
100
AcDbEntity
  8
Calque_1
 62
1
100
AcDbLine
 10
-322.035718
 20
205.945082
 30
0.0
 11
-322.035718
 21
211.262472
 31
0.0
  0
LINE
  5
1ec
100
AcDbEntity
  8
Calque_1
 62
1
100
AcDbLine
 10
-322.035718
 20
211.262472
 30
0.0
 11
-319.035718
 21
211.262472
 31
0.0
  0
LINE
  5
1ed
100
AcDbEntity
  8
Calque_1
 62
1
100
AcDbLine
 10
-319.035718
 20
211.262472
 30
0.0
 11
-319.035718
 21
216.379862
 31
0.0
  0
LINE
  5
1ee
100
AcDbEntity
  8
Calque_1
 62
1
100
AcDbLine
 10
-319.035718
 20
216.379862
 30
0.0
 11
-322.035718
 21
216.379862
 31
0.0
  0
LINE
  5
1ef
100
AcDbEntity
  8
Calque_1
 62
1
100
AcDbLine
 10
-322.035718
 20
216.379862
 30
0.0
 11
-322.035718
 21
221.697252
 31
0.0
  0
LINE
  5
1f0
100
AcDbEntity
  8
Calque_1
 62
1
100
AcDbLine
 10
-322.035718
 20
221.697252
 30
0.0
 11
-319.035718
 21
221.697252
 31
0.0
  0
LINE
  5
1f1
100
AcDbEntity
  8
Calque_1
 62
1
100
AcDbLine
 10
-319.035718
 20
221.697252
 30
0.0
 11
-319.035718
 21
226.814642
 31
0.0
  0
LINE
  5
1f2
100
AcDbEntity
  8
Calque_1
 62
1
100
AcDbLine
 10
-319.035718
 20
226.814642
 30
0.0
 11
-322.035718
 21
226.814642
 31
0.0
  0
LINE
  5
1f3
100
AcDbEntity
  8
Calque_1
 62
1
100
AcDbLine
 10
-322.035718
 20
226.814642
 30
0.0
 11
-322.035718
 21
232.132042
 31
0.0
  0
LINE
  5
1f4
100
AcDbEntity
  8
Calque_1
 62
1
100
AcDbLine
 10
-322.035718
 20
232.132042
 30
0.0
 11
-319.035718
 21
232.132042
 31
0.0
  0
LINE
  5
1f5
100
AcDbEntity
  8
Calque_1
 62
1
100
AcDbLine
 10
-319.035718
 20
232.132042
 30
0.0
 11
-319.035718
 21
237.249432
 31
0.0
  0
LINE
  5
1f6
100
AcDbEntity
  8
Calque_1
 62
1
100
AcDbLine
 10
-319.035718
 20
237.249432
 30
0.0
 11
-322.035718
 21
237.249432
 31
0.0
  0
LINE
  5
1f7
100
AcDbEntity
  8
Calque_1
 62
1
100
AcDbLine
 10
-322.035718
 20
237.249432
 30
0.0
 11
-322.035718
 21
242.566822
 31
0.0
  0
LINE
  5
1f8
100
AcDbEntity
  8
Calque_1
 62
1
100
AcDbLine
 10
-322.035718
 20
242.566822
 30
0.0
 11
-319.035718
 21
242.566822
 31
0.0
  0
LINE
  5
1f9
100
AcDbEntity
  8
Calque_1
 62
1
100
AcDbLine
 10
-319.035718
 20
242.566822
 30
0.0
 11
-319.035718
 21
247.684212
 31
0.0
  0
LINE
  5
1fa
100
AcDbEntity
  8
Calque_1
 62
1
100
AcDbLine
 10
-319.035718
 20
247.684212
 30
0.0
 11
-322.035718
 21
247.684212
 31
0.0
  0
LINE
  5
1fb
100
AcDbEntity
  8
Calque_1
 62
1
100
AcDbLine
 10
-322.035718
 20
247.684212
 30
0.0
 11
-322.035718
 21
253.001602
 31
0.0
  0
LINE
  5
1fc
100
AcDbEntity
  8
Calque_1
 62
1
100
AcDbLine
 10
-322.035718
 20
253.001602
 30
0.0
 11
-319.035718
 21
253.001602
 31
0.0
  0
LINE
  5
1fd
100
AcDbEntity
  8
Calque_1
 62
1
100
AcDbLine
 10
-319.035718
 20
253.001602
 30
0.0
 11
-319.035718
 21
258.118992
 31
0.0
  0
LINE
  5
1fe
100
AcDbEntity
  8
Calque_1
 62
1
100
AcDbLine
 10
-319.035718
 20
258.118992
 30
0.0
 11
-322.035718
 21
258.118992
 31
0.0
  0
LINE
  5
1ff
100
AcDbEntity
  8
Calque_1
 62
1
100
AcDbLine
 10
-322.035718
 20
258.118992
 30
0.0
 11
-322.035718
 21
263.436382
 31
0.0
  0
LINE
  5
200
100
AcDbEntity
  8
Calque_1
 62
1
100
AcDbLine
 10
-322.035718
 20
263.436382
 30
0.0
 11
-319.035718
 21
263.436382
 31
0.0
  0
LINE
  5
201
100
AcDbEntity
  8
Calque_1
 62
1
100
AcDbLine
 10
-319.035718
 20
263.436382
 30
0.0
 11
-319.035718
 21
268.553782
 31
0.0
  0
LINE
  5
202
100
AcDbEntity
  8
Calque_1
 62
1
100
AcDbLine
 10
-319.035718
 20
268.553782
 30
0.0
 11
-322.035718
 21
268.553782
 31
0.0
  0
LINE
  5
203
100
AcDbEntity
  8
Calque_1
 62
1
100
AcDbLine
 10
-322.035718
 20
268.553782
 30
0.0
 11
-322.035718
 21
273.871172
 31
0.0
  0
LINE
  5
204
100
AcDbEntity
  8
Calque_1
 62
1
100
AcDbLine
 10
-322.035718
 20
273.871172
 30
0.0
 11
-319.035718
 21
273.871172
 31
0.0
  0
LINE
  5
205
100
AcDbEntity
  8
Calque_1
 62
1
100
AcDbLine
 10
-319.035718
 20
273.871172
 30
0.0
 11
-319.035718
 21
278.988562
 31
0.0
  0
LINE
  5
206
100
AcDbEntity
  8
Calque_1
 62
1
100
AcDbLine
 10
-319.035718
 20
278.988562
 30
0.0
 11
-322.035718
 21
278.988562
 31
0.0
  0
LINE
  5
207
100
AcDbEntity
  8
Calque_1
 62
1
100
AcDbLine
 10
-322.035718
 20
278.988562
 30
0.0
 11
-322.035718
 21
284.255952
 31
0.0
  0
LINE
  5
208
100
AcDbEntity
  8
Calque_1
 62
1
100
AcDbLine
 10
-322.035718
 20
158.255952
 30
0.0
 11
-317.085718
 21
158.255952
 31
0.0
  0
LINE
  5
209
100
AcDbEntity
  8
Calque_1
 62
1
100
AcDbLine
 10
-317.085718
 20
158.255952
 30
0.0
 11
-317.085718
 21
161.255952
 31
0.0
  0
LINE
  5
20a
100
AcDbEntity
  8
Calque_1
 62
1
100
AcDbLine
 10
-317.085718
 20
161.255952
 30
0.0
 11
-311.985718
 21
161.255952
 31
0.0
  0
LINE
  5
20b
100
AcDbEntity
  8
Calque_1
 62
1
100
AcDbLine
 10
-311.985718
 20
161.255952
 30
0.0
 11
-311.985718
 21
158.255952
 31
0.0
  0
LINE
  5
20c
100
AcDbEntity
  8
Calque_1
 62
1
100
AcDbLine
 10
-311.985718
 20
158.255952
 30
0.0
 11
-307.085718
 21
158.255952
 31
0.0
  0
LINE
  5
20d
100
AcDbEntity
  8
Calque_1
 62
1
100
AcDbLine
 10
-307.085718
 20
158.255952
 30
0.0
 11
-307.085718
 21
161.255952
 31
0.0
  0
LINE
  5
20e
100
AcDbEntity
  8
Calque_1
 62
1
100
AcDbLine
 10
-307.085718
 20
161.255952
 30
0.0
 11
-301.985718
 21
161.255952
 31
0.0
  0
LINE
  5
20f
100
AcDbEntity
  8
Calque_1
 62
1
100
AcDbLine
 10
-301.985718
 20
161.255952
 30
0.0
 11
-301.985718
 21
158.255952
 31
0.0
  0
LINE
  5
210
100
AcDbEntity
  8
Calque_1
 62
1
100
AcDbLine
 10
-301.985718
 20
158.255952
 30
0.0
 11
-297.085718
 21
158.255952
 31
0.0
  0
LINE
  5
211
100
AcDbEntity
  8
Calque_1
 62
1
100
AcDbLine
 10
-297.085718
 20
158.255952
 30
0.0
 11
-297.085718
 21
161.255952
 31
0.0
  0
LINE
  5
212
100
AcDbEntity
  8
Calque_1
 62
1
100
AcDbLine
 10
-297.085718
 20
161.255952
 30
0.0
 11
-291.985718
 21
161.255952
 31
0.0
  0
LINE
  5
213
100
AcDbEntity
  8
Calque_1
 62
1
100
AcDbLine
 10
-291.985718
 20
161.255952
 30
0.0
 11
-291.985718
 21
158.255952
 31
0.0
  0
LINE
  5
214
100
AcDbEntity
  8
Calque_1
 62
1
100
AcDbLine
 10
-291.985718
 20
158.255952
 30
0.0
 11
-287.085718
 21
158.255952
 31
0.0
  0
LINE
  5
215
100
AcDbEntity
  8
Calque_1
 62
1
100
AcDbLine
 10
-287.085718
 20
158.255952
 30
0.0
 11
-287.085718
 21
161.255952
 31
0.0
  0
LINE
  5
216
100
AcDbEntity
  8
Calque_1
 62
1
100
AcDbLine
 10
-287.085718
 20
161.255952
 30
0.0
 11
-281.985720
 21
161.255952
 31
0.0
  0
LINE
  5
217
100
AcDbEntity
  8
Calque_1
 62
1
100
AcDbLine
 10
-281.985720
 20
161.255952
 30
0.0
 11
-281.985720
 21
158.255952
 31
0.0
  0
LINE
  5
218
100
AcDbEntity
  8
Calque_1
 62
1
100
AcDbLine
 10
-281.985720
 20
158.255952
 30
0.0
 11
-277.085720
 21
158.255952
 31
0.0
  0
LINE
  5
219
100
AcDbEntity
  8
Calque_1
 62
1
100
AcDbLine
 10
-277.085720
 20
158.255952
 30
0.0
 11
-277.085720
 21
161.255952
 31
0.0
  0
LINE
  5
21a
100
AcDbEntity
  8
Calque_1
 62
1
100
AcDbLine
 10
-277.085720
 20
161.255952
 30
0.0
 11
-271.985720
 21
161.255952
 31
0.0
  0
LINE
  5
21b
100
AcDbEntity
  8
Calque_1
 62
1
100
AcDbLine
 10
-271.985720
 20
161.255952
 30
0.0
 11
-271.985720
 21
158.255952
 31
0.0
  0
LINE
  5
21c
100
AcDbEntity
  8
Calque_1
 62
1
100
AcDbLine
 10
-271.985720
 20
158.255952
 30
0.0
 11
-267.035720
 21
158.255952
 31
0.0
  0
LINE
  5
21d
100
AcDbEntity
  8
Calque_1
 62
1
100
AcDbLine
 10
-267.035720
 20
158.255952
 30
0.0
 11
-267.035720
 21
150.205952
 31
0.0
  0
LINE
  5
21e
100
AcDbEntity
  8
Calque_1
 62
1
100
AcDbLine
 10
-267.035720
 20
150.205952
 30
0.0
 11
-270.035720
 21
150.205952
 31
0.0
  0
LINE
  5
21f
100
AcDbEntity
  8
Calque_1
 62
1
100
AcDbLine
 10
-270.035720
 20
150.205952
 30
0.0
 11
-270.035720
 21
142.305952
 31
0.0
  0
LINE
  5
220
100
AcDbEntity
  8
Calque_1
 62
1
100
AcDbLine
 10
-270.035720
 20
142.305952
 30
0.0
 11
-267.035720
 21
142.305952
 31
0.0
  0
LINE
  5
221
100
AcDbEntity
  8
Calque_1
 62
1
100
AcDbLine
 10
-267.035720
 20
142.305952
 30
0.0
 11
-267.035720
 21
134.255952
 31
0.0
  0
LINE
  5
222
100
AcDbEntity
  8
Calque_1
 62
1
100
AcDbLine
 10
-267.035720
 20
134.255952
 30
0.0
 11
-271.985720
 21
134.255952
 31
0.0
  0
LINE
  5
223
100
AcDbEntity
  8
Calque_1
 62
1
100
AcDbLine
 10
-271.985720
 20
134.255952
 30
0.0
 11
-271.985720
 21
131.255952
 31
0.0
  0
LINE
  5
224
100
AcDbEntity
  8
Calque_1
 62
1
100
AcDbLine
 10
-271.985720
 20
131.255952
 30
0.0
 11
-277.085720
 21
131.255952
 31
0.0
  0
LINE
  5
225
100
AcDbEntity
  8
Calque_1
 62
1
100
AcDbLine
 10
-277.085720
 20
131.255952
 30
0.0
 11
-277.085720
 21
134.255952
 31
0.0
  0
LINE
  5
226
100
AcDbEntity
  8
Calque_1
 62
1
100
AcDbLine
 10
-277.085720
 20
134.255952
 30
0.0
 11
-281.985720
 21
134.255952
 31
0.0
  0
LINE
  5
227
100
AcDbEntity
  8
Calque_1
 62
1
100
AcDbLine
 10
-281.985720
 20
134.255952
 30
0.0
 11
-281.985720
 21
131.255952
 31
0.0
  0
LINE
  5
228
100
AcDbEntity
  8
Calque_1
 62
1
100
AcDbLine
 10
-281.985720
 20
131.255952
 30
0.0
 11
-287.085718
 21
131.255952
 31
0.0
  0
LINE
  5
229
100
AcDbEntity
  8
Calque_1
 62
1
100
AcDbLine
 10
-287.085718
 20
131.255952
 30
0.0
 11
-287.085718
 21
134.255952
 31
0.0
  0
LINE
  5
22a
100
AcDbEntity
  8
Calque_1
 62
1
100
AcDbLine
 10
-287.085718
 20
134.255952
 30
0.0
 11
-291.985718
 21
134.255952
 31
0.0
  0
LINE
  5
22b
100
AcDbEntity
  8
Calque_1
 62
1
100
AcDbLine
 10
-291.985718
 20
134.255952
 30
0.0
 11
-291.985718
 21
131.255952
 31
0.0
  0
LINE
  5
22c
100
AcDbEntity
  8
Calque_1
 62
1
100
AcDbLine
 10
-291.985718
 20
131.255952
 30
0.0
 11
-297.085718
 21
131.255952
 31
0.0
  0
LINE
  5
22d
100
AcDbEntity
  8
Calque_1
 62
1
100
AcDbLine
 10
-297.085718
 20
131.255952
 30
0.0
 11
-297.085718
 21
134.255952
 31
0.0
  0
LINE
  5
22e
100
AcDbEntity
  8
Calque_1
 62
1
100
AcDbLine
 10
-297.085718
 20
134.255952
 30
0.0
 11
-301.985718
 21
134.255952
 31
0.0
  0
LINE
  5
22f
100
AcDbEntity
  8
Calque_1
 62
1
100
AcDbLine
 10
-301.985718
 20
134.255952
 30
0.0
 11
-301.985718
 21
131.255952
 31
0.0
  0
LINE
  5
230
100
AcDbEntity
  8
Calque_1
 62
1
100
AcDbLine
 10
-301.985718
 20
131.255952
 30
0.0
 11
-307.085718
 21
131.255952
 31
0.0
  0
LINE
  5
231
100
AcDbEntity
  8
Calque_1
 62
1
100
AcDbLine
 10
-307.085718
 20
131.255952
 30
0.0
 11
-307.085718
 21
134.255952
 31
0.0
  0
LINE
  5
232
100
AcDbEntity
  8
Calque_1
 62
1
100
AcDbLine
 10
-307.085718
 20
134.255952
 30
0.0
 11
-311.985718
 21
134.255952
 31
0.0
  0
LINE
  5
233
100
AcDbEntity
  8
Calque_1
 62
1
100
AcDbLine
 10
-311.985718
 20
134.255952
 30
0.0
 11
-311.985718
 21
131.255952
 31
0.0
  0
LINE
  5
234
100
AcDbEntity
  8
Calque_1
 62
1
100
AcDbLine
 10
-311.985718
 20
131.255952
 30
0.0
 11
-317.085718
 21
131.255952
 31
0.0
  0
LINE
  5
235
100
AcDbEntity
  8
Calque_1
 62
1
100
AcDbLine
 10
-317.085718
 20
131.255952
 30
0.0
 11
-317.085718
 21
134.255952
 31
0.0
  0
LINE
  5
236
100
AcDbEntity
  8
Calque_1
 62
1
100
AcDbLine
 10
-317.085718
 20
134.255952
 30
0.0
 11
-322.035718
 21
134.255952
 31
0.0
  0
LINE
  5
237
100
AcDbEntity
  8
Calque_1
 62
1
100
AcDbLine
 10
-322.035718
 20
134.255952
 30
0.0
 11
-322.035718
 21
142.305952
 31
0.0
  0
LINE
  5
238
100
AcDbEntity
  8
Calque_1
 62
1
100
AcDbLine
 10
-322.035718
 20
142.305952
 30
0.0
 11
-319.035718
 21
142.305952
 31
0.0
  0
LINE
  5
239
100
AcDbEntity
  8
Calque_1
 62
1
100
AcDbLine
 10
-319.035718
 20
142.305952
 30
0.0
 11
-319.035718
 21
150.205952
 31
0.0
  0
LINE
  5
23a
100
AcDbEntity
  8
Calque_1
 62
1
100
AcDbLine
 10
-319.035718
 20
150.205952
 30
0.0
 11
-322.035718
 21
150.205952
 31
0.0
  0
LINE
  5
23b
100
AcDbEntity
  8
Calque_1
 62
1
100
AcDbLine
 10
-322.035718
 20
150.205952
 30
0.0
 11
-322.035718
 21
158.255952
 31
0.0
  0
LINE
  5
23c
100
AcDbEntity
  8
Calque_1
 62
1
100
AcDbLine
 10
-380.035718
 20
158.255952
 30
0.0
 11
-375.085718
 21
158.255952
 31
0.0
  0
LINE
  5
23d
100
AcDbEntity
  8
Calque_1
 62
1
100
AcDbLine
 10
-375.085718
 20
158.255952
 30
0.0
 11
-375.085718
 21
161.255952
 31
0.0
  0
LINE
  5
23e
100
AcDbEntity
  8
Calque_1
 62
1
100
AcDbLine
 10
-375.085718
 20
161.255952
 30
0.0
 11
-369.985718
 21
161.255952
 31
0.0
  0
LINE
  5
23f
100
AcDbEntity
  8
Calque_1
 62
1
100
AcDbLine
 10
-369.985718
 20
161.255952
 30
0.0
 11
-369.985718
 21
158.255952
 31
0.0
  0
LINE
  5
240
100
AcDbEntity
  8
Calque_1
 62
1
100
AcDbLine
 10
-369.985718
 20
158.255952
 30
0.0
 11
-365.085718
 21
158.255952
 31
0.0
  0
LINE
  5
241
100
AcDbEntity
  8
Calque_1
 62
1
100
AcDbLine
 10
-365.085718
 20
158.255952
 30
0.0
 11
-365.085718
 21
161.255952
 31
0.0
  0
LINE
  5
242
100
AcDbEntity
  8
Calque_1
 62
1
100
AcDbLine
 10
-365.085718
 20
161.255952
 30
0.0
 11
-359.985718
 21
161.255952
 31
0.0
  0
LINE
  5
243
100
AcDbEntity
  8
Calque_1
 62
1
100
AcDbLine
 10
-359.985718
 20
161.255952
 30
0.0
 11
-359.985718
 21
158.255952
 31
0.0
  0
LINE
  5
244
100
AcDbEntity
  8
Calque_1
 62
1
100
AcDbLine
 10
-359.985718
 20
158.255952
 30
0.0
 11
-355.085718
 21
158.255952
 31
0.0
  0
LINE
  5
245
100
AcDbEntity
  8
Calque_1
 62
1
100
AcDbLine
 10
-355.085718
 20
158.255952
 30
0.0
 11
-355.085718
 21
161.255952
 31
0.0
  0
LINE
  5
246
100
AcDbEntity
  8
Calque_1
 62
1
100
AcDbLine
 10
-355.085718
 20
161.255952
 30
0.0
 11
-349.985718
 21
161.255952
 31
0.0
  0
LINE
  5
247
100
AcDbEntity
  8
Calque_1
 62
1
100
AcDbLine
 10
-349.985718
 20
161.255952
 30
0.0
 11
-349.985718
 21
158.255952
 31
0.0
  0
LINE
  5
248
100
AcDbEntity
  8
Calque_1
 62
1
100
AcDbLine
 10
-349.985718
 20
158.255952
 30
0.0
 11
-345.085718
 21
158.255952
 31
0.0
  0
LINE
  5
249
100
AcDbEntity
  8
Calque_1
 62
1
100
AcDbLine
 10
-345.085718
 20
158.255952
 30
0.0
 11
-345.085718
 21
161.255952
 31
0.0
  0
LINE
  5
24a
100
AcDbEntity
  8
Calque_1
 62
1
100
AcDbLine
 10
-345.085718
 20
161.255952
 30
0.0
 11
-339.985718
 21
161.255952
 31
0.0
  0
LINE
  5
24b
100
AcDbEntity
  8
Calque_1
 62
1
100
AcDbLine
 10
-339.985718
 20
161.255952
 30
0.0
 11
-339.985718
 21
158.255952
 31
0.0
  0
LINE
  5
24c
100
AcDbEntity
  8
Calque_1
 62
1
100
AcDbLine
 10
-339.985718
 20
158.255952
 30
0.0
 11
-335.085718
 21
158.255952
 31
0.0
  0
LINE
  5
24d
100
AcDbEntity
  8
Calque_1
 62
1
100
AcDbLine
 10
-335.085718
 20
158.255952
 30
0.0
 11
-335.085718
 21
161.255952
 31
0.0
  0
LINE
  5
24e
100
AcDbEntity
  8
Calque_1
 62
1
100
AcDbLine
 10
-335.085718
 20
161.255952
 30
0.0
 11
-329.985718
 21
161.255952
 31
0.0
  0
LINE
  5
24f
100
AcDbEntity
  8
Calque_1
 62
1
100
AcDbLine
 10
-329.985718
 20
161.255952
 30
0.0
 11
-329.985718
 21
158.255952
 31
0.0
  0
LINE
  5
250
100
AcDbEntity
  8
Calque_1
 62
1
100
AcDbLine
 10
-329.985718
 20
158.255952
 30
0.0
 11
-325.035718
 21
158.255952
 31
0.0
  0
LINE
  5
251
100
AcDbEntity
  8
Calque_1
 62
1
100
AcDbLine
 10
-325.035718
 20
158.255952
 30
0.0
 11
-325.035718
 21
150.205952
 31
0.0
  0
LINE
  5
252
100
AcDbEntity
  8
Calque_1
 62
1
100
AcDbLine
 10
-325.035718
 20
150.205952
 30
0.0
 11
-328.035718
 21
150.205952
 31
0.0
  0
LINE
  5
253
100
AcDbEntity
  8
Calque_1
 62
1
100
AcDbLine
 10
-328.035718
 20
150.205952
 30
0.0
 11
-328.035718
 21
142.305952
 31
0.0
  0
LINE
  5
254
100
AcDbEntity
  8
Calque_1
 62
1
100
AcDbLine
 10
-328.035718
 20
142.305952
 30
0.0
 11
-325.035718
 21
142.305952
 31
0.0
  0
LINE
  5
255
100
AcDbEntity
  8
Calque_1
 62
1
100
AcDbLine
 10
-325.035718
 20
142.305952
 30
0.0
 11
-325.035718
 21
134.255952
 31
0.0
  0
LINE
  5
256
100
AcDbEntity
  8
Calque_1
 62
1
100
AcDbLine
 10
-325.035718
 20
134.255952
 30
0.0
 11
-329.985718
 21
134.255952
 31
0.0
  0
LINE
  5
257
100
AcDbEntity
  8
Calque_1
 62
1
100
AcDbLine
 10
-329.985718
 20
134.255952
 30
0.0
 11
-329.985718
 21
131.255952
 31
0.0
  0
LINE
  5
258
100
AcDbEntity
  8
Calque_1
 62
1
100
AcDbLine
 10
-329.985718
 20
131.255952
 30
0.0
 11
-335.085718
 21
131.255952
 31
0.0
  0
LINE
  5
259
100
AcDbEntity
  8
Calque_1
 62
1
100
AcDbLine
 10
-335.085718
 20
131.255952
 30
0.0
 11
-335.085718
 21
134.255952
 31
0.0
  0
LINE
  5
25a
100
AcDbEntity
  8
Calque_1
 62
1
100
AcDbLine
 10
-335.085718
 20
134.255952
 30
0.0
 11
-339.985718
 21
134.255952
 31
0.0
  0
LINE
  5
25b
100
AcDbEntity
  8
Calque_1
 62
1
100
AcDbLine
 10
-339.985718
 20
134.255952
 30
0.0
 11
-339.985718
 21
131.255952
 31
0.0
  0
LINE
  5
25c
100
AcDbEntity
  8
Calque_1
 62
1
100
AcDbLine
 10
-339.985718
 20
131.255952
 30
0.0
 11
-345.085718
 21
131.255952
 31
0.0
  0
LINE
  5
25d
100
AcDbEntity
  8
Calque_1
 62
1
100
AcDbLine
 10
-345.085718
 20
131.255952
 30
0.0
 11
-345.085718
 21
134.255952
 31
0.0
  0
LINE
  5
25e
100
AcDbEntity
  8
Calque_1
 62
1
100
AcDbLine
 10
-345.085718
 20
134.255952
 30
0.0
 11
-349.985718
 21
134.255952
 31
0.0
  0
LINE
  5
25f
100
AcDbEntity
  8
Calque_1
 62
1
100
AcDbLine
 10
-349.985718
 20
134.255952
 30
0.0
 11
-349.985718
 21
131.255952
 31
0.0
  0
LINE
  5
260
100
AcDbEntity
  8
Calque_1
 62
1
100
AcDbLine
 10
-349.985718
 20
131.255952
 30
0.0
 11
-355.085718
 21
131.255952
 31
0.0
  0
LINE
  5
261
100
AcDbEntity
  8
Calque_1
 62
1
100
AcDbLine
 10
-355.085718
 20
131.255952
 30
0.0
 11
-355.085718
 21
134.255952
 31
0.0
  0
LINE
  5
262
100
AcDbEntity
  8
Calque_1
 62
1
100
AcDbLine
 10
-355.085718
 20
134.255952
 30
0.0
 11
-359.985718
 21
134.255952
 31
0.0
  0
LINE
  5
263
100
AcDbEntity
  8
Calque_1
 62
1
100
AcDbLine
 10
-359.985718
 20
134.255952
 30
0.0
 11
-359.985718
 21
131.255952
 31
0.0
  0
LINE
  5
264
100
AcDbEntity
  8
Calque_1
 62
1
100
AcDbLine
 10
-359.985718
 20
131.255952
 30
0.0
 11
-365.085718
 21
131.255952
 31
0.0
  0
LINE
  5
265
100
AcDbEntity
  8
Calque_1
 62
1
100
AcDbLine
 10
-365.085718
 20
131.255952
 30
0.0
 11
-365.085718
 21
134.255952
 31
0.0
  0
LINE
  5
266
100
AcDbEntity
  8
Calque_1
 62
1
100
AcDbLine
 10
-365.085718
 20
134.255952
 30
0.0
 11
-369.985718
 21
134.255952
 31
0.0
  0
LINE
  5
267
100
AcDbEntity
  8
Calque_1
 62
1
100
AcDbLine
 10
-369.985718
 20
134.255952
 30
0.0
 11
-369.985718
 21
131.255952
 31
0.0
  0
LINE
  5
268
100
AcDbEntity
  8
Calque_1
 62
1
100
AcDbLine
 10
-369.985718
 20
131.255952
 30
0.0
 11
-375.085718
 21
131.255952
 31
0.0
  0
LINE
  5
269
100
AcDbEntity
  8
Calque_1
 62
1
100
AcDbLine
 10
-375.085718
 20
131.255952
 30
0.0
 11
-375.085718
 21
134.255952
 31
0.0
  0
LINE
  5
26a
100
AcDbEntity
  8
Calque_1
 62
1
100
AcDbLine
 10
-375.085718
 20
134.255952
 30
0.0
 11
-380.035718
 21
134.255952
 31
0.0
  0
LINE
  5
26b
100
AcDbEntity
  8
Calque_1
 62
1
100
AcDbLine
 10
-380.035718
 20
134.255952
 30
0.0
 11
-380.035718
 21
142.305952
 31
0.0
  0
LINE
  5
26c
100
AcDbEntity
  8
Calque_1
 62
1
100
AcDbLine
 10
-380.035718
 20
142.305952
 30
0.0
 11
-377.035718
 21
142.305952
 31
0.0
  0
LINE
  5
26d
100
AcDbEntity
  8
Calque_1
 62
1
100
AcDbLine
 10
-377.035718
 20
142.305952
 30
0.0
 11
-377.035718
 21
150.205952
 31
0.0
  0
LINE
  5
26e
100
AcDbEntity
  8
Calque_1
 62
1
100
AcDbLine
 10
-377.035718
 20
150.205952
 30
0.0
 11
-380.035718
 21
150.205952
 31
0.0
  0
LINE
  5
26f
100
AcDbEntity
  8
Calque_1
 62
1
100
AcDbLine
 10
-380.035718
 20
150.205952
 30
0.0
 11
-380.035718
 21
158.255952
 31
0.0
  0
LINE
  5
270
100
AcDbEntity
  8
Calque_1
 62
1
100
AcDbLine
 10
-254.035720
 20
125.255952
 30
0.0
 11
-251.868330
 21
125.255952
 31
0.0
  0
LINE
  5
271
100
AcDbEntity
  8
Calque_1
 62
1
100
AcDbLine
 10
-251.868330
 20
125.255952
 30
0.0
 11
-251.868330
 21
128.255952
 31
0.0
  0
LINE
  5
272
100
AcDbEntity
  8
Calque_1
 62
1
100
AcDbLine
 10
-251.868330
 20
128.255952
 30
0.0
 11
-246.550940
 21
128.255952
 31
0.0
  0
LINE
  5
273
100
AcDbEntity
  8
Calque_1
 62
1
100
AcDbLine
 10
-246.550940
 20
128.255952
 30
0.0
 11
-246.550940
 21
125.255952
 31
0.0
  0
LINE
  5
274
100
AcDbEntity
  8
Calque_1
 62
1
100
AcDbLine
 10
-246.550940
 20
125.255952
 30
0.0
 11
-241.433540
 21
125.255952
 31
0.0
  0
LINE
  5
275
100
AcDbEntity
  8
Calque_1
 62
1
100
AcDbLine
 10
-241.433540
 20
125.255952
 30
0.0
 11
-241.433540
 21
128.255952
 31
0.0
  0
LINE
  5
276
100
AcDbEntity
  8
Calque_1
 62
1
100
AcDbLine
 10
-241.433540
 20
128.255952
 30
0.0
 11
-236.116150
 21
128.255952
 31
0.0
  0
LINE
  5
277
100
AcDbEntity
  8
Calque_1
 62
1
100
AcDbLine
 10
-236.116150
 20
128.255952
 30
0.0
 11
-236.116150
 21
125.255952
 31
0.0
  0
LINE
  5
278
100
AcDbEntity
  8
Calque_1
 62
1
100
AcDbLine
 10
-236.116150
 20
125.255952
 30
0.0
 11
-230.998760
 21
125.255952
 31
0.0
  0
LINE
  5
279
100
AcDbEntity
  8
Calque_1
 62
1
100
AcDbLine
 10
-230.998760
 20
125.255952
 30
0.0
 11
-230.998760
 21
128.255952
 31
0.0
  0
LINE
  5
27a
100
AcDbEntity
  8
Calque_1
 62
1
100
AcDbLine
 10
-230.998760
 20
128.255952
 30
0.0
 11
-225.681370
 21
128.255952
 31
0.0
  0
LINE
  5
27b
100
AcDbEntity
  8
Calque_1
 62
1
100
AcDbLine
 10
-225.681370
 20
128.255952
 30
0.0
 11
-225.681370
 21
125.255952
 31
0.0
  0
LINE
  5
27c
100
AcDbEntity
  8
Calque_1
 62
1
100
AcDbLine
 10
-225.681370
 20
125.255952
 30
0.0
 11
-220.563980
 21
125.255952
 31
0.0
  0
LINE
  5
27d
100
AcDbEntity
  8
Calque_1
 62
1
100
AcDbLine
 10
-220.563980
 20
125.255952
 30
0.0
 11
-220.563980
 21
128.255952
 31
0.0
  0
LINE
  5
27e
100
AcDbEntity
  8
Calque_1
 62
1
100
AcDbLine
 10
-220.563980
 20
128.255952
 30
0.0
 11
-215.246590
 21
128.255952
 31
0.0
  0
LINE
  5
27f
100
AcDbEntity
  8
Calque_1
 62
1
100
AcDbLine
 10
-215.246590
 20
128.255952
 30
0.0
 11
-215.246590
 21
125.255952
 31
0.0
  0
LINE
  5
280
100
AcDbEntity
  8
Calque_1
 62
1
100
AcDbLine
 10
-215.246590
 20
125.255952
 30
0.0
 11
-210.129200
 21
125.255952
 31
0.0
  0
LINE
  5
281
100
AcDbEntity
  8
Calque_1
 62
1
100
AcDbLine
 10
-210.129200
 20
125.255952
 30
0.0
 11
-210.129200
 21
128.255952
 31
0.0
  0
LINE
  5
282
100
AcDbEntity
  8
Calque_1
 62
1
100
AcDbLine
 10
-210.129200
 20
128.255952
 30
0.0
 11
-204.811800
 21
128.255952
 31
0.0
  0
LINE
  5
283
100
AcDbEntity
  8
Calque_1
 62
1
100
AcDbLine
 10
-204.811800
 20
128.255952
 30
0.0
 11
-204.811800
 21
125.255952
 31
0.0
  0
LINE
  5
284
100
AcDbEntity
  8
Calque_1
 62
1
100
AcDbLine
 10
-204.811800
 20
125.255952
 30
0.0
 11
-199.694410
 21
125.255952
 31
0.0
  0
LINE
  5
285
100
AcDbEntity
  8
Calque_1
 62
1
100
AcDbLine
 10
-199.694410
 20
125.255952
 30
0.0
 11
-199.694410
 21
128.255952
 31
0.0
  0
LINE
  5
286
100
AcDbEntity
  8
Calque_1
 62
1
100
AcDbLine
 10
-199.694410
 20
128.255952
 30
0.0
 11
-194.377020
 21
128.255952
 31
0.0
  0
LINE
  5
287
100
AcDbEntity
  8
Calque_1
 62
1
100
AcDbLine
 10
-194.377020
 20
128.255952
 30
0.0
 11
-194.377020
 21
125.255952
 31
0.0
  0
LINE
  5
288
100
AcDbEntity
  8
Calque_1
 62
1
100
AcDbLine
 10
-194.377020
 20
125.255952
 30
0.0
 11
-189.259630
 21
125.255952
 31
0.0
  0
LINE
  5
289
100
AcDbEntity
  8
Calque_1
 62
1
100
AcDbLine
 10
-189.259630
 20
125.255952
 30
0.0
 11
-189.259630
 21
128.255952
 31
0.0
  0
LINE
  5
28a
100
AcDbEntity
  8
Calque_1
 62
1
100
AcDbLine
 10
-189.259630
 20
128.255952
 30
0.0
 11
-183.942240
 21
128.255952
 31
0.0
  0
LINE
  5
28b
100
AcDbEntity
  8
Calque_1
 62
1
100
AcDbLine
 10
-183.942240
 20
128.255952
 30
0.0
 11
-183.942240
 21
125.255952
 31
0.0
  0
LINE
  5
28c
100
AcDbEntity
  8
Calque_1
 62
1
100
AcDbLine
 10
-183.942240
 20
125.255952
 30
0.0
 11
-178.824850
 21
125.255952
 31
0.0
  0
LINE
  5
28d
100
AcDbEntity
  8
Calque_1
 62
1
100
AcDbLine
 10
-178.824850
 20
125.255952
 30
0.0
 11
-178.824850
 21
128.255952
 31
0.0
  0
LINE
  5
28e
100
AcDbEntity
  8
Calque_1
 62
1
100
AcDbLine
 10
-178.824850
 20
128.255952
 30
0.0
 11
-173.507460
 21
128.255952
 31
0.0
  0
LINE
  5
28f
100
AcDbEntity
  8
Calque_1
 62
1
100
AcDbLine
 10
-173.507460
 20
128.255952
 30
0.0
 11
-173.507460
 21
125.255952
 31
0.0
  0
LINE
  5
290
100
AcDbEntity
  8
Calque_1
 62
1
100
AcDbLine
 10
-173.507460
 20
125.255952
 30
0.0
 11
-168.390070
 21
125.255952
 31
0.0
  0
LINE
  5
291
100
AcDbEntity
  8
Calque_1
 62
1
100
AcDbLine
 10
-168.390070
 20
125.255952
 30
0.0
 11
-168.390070
 21
128.255952
 31
0.0
  0
LINE
  5
292
100
AcDbEntity
  8
Calque_1
 62
1
100
AcDbLine
 10
-168.390070
 20
128.255952
 30
0.0
 11
-163.072670
 21
128.255952
 31
0.0
  0
LINE
  5
293
100
AcDbEntity
  8
Calque_1
 62
1
100
AcDbLine
 10
-163.072670
 20
128.255952
 30
0.0
 11
-163.072670
 21
125.255952
 31
0.0
  0
LINE
  5
294
100
AcDbEntity
  8
Calque_1
 62
1
100
AcDbLine
 10
-163.072670
 20
125.255952
 30
0.0
 11
-157.955280
 21
125.255952
 31
0.0
  0
LINE
  5
295
100
AcDbEntity
  8
Calque_1
 62
1
100
AcDbLine
 10
-157.955280
 20
125.255952
 30
0.0
 11
-157.955280
 21
128.255952
 31
0.0
  0
LINE
  5
296
100
AcDbEntity
  8
Calque_1
 62
1
100
AcDbLine
 10
-157.955280
 20
128.255952
 30
0.0
 11
-152.637890
 21
128.255952
 31
0.0
  0
LINE
  5
297
100
AcDbEntity
  8
Calque_1
 62
1
100
AcDbLine
 10
-152.637890
 20
128.255952
 30
0.0
 11
-152.637890
 21
125.255952
 31
0.0
  0
LINE
  5
298
100
AcDbEntity
  8
Calque_1
 62
1
100
AcDbLine
 10
-152.637890
 20
125.255952
 30
0.0
 11
-147.520500
 21
125.255952
 31
0.0
  0
LINE
  5
299
100
AcDbEntity
  8
Calque_1
 62
1
100
AcDbLine
 10
-147.520500
 20
125.255952
 30
0.0
 11
-147.520500
 21
128.255952
 31
0.0
  0
LINE
  5
29a
100
AcDbEntity
  8
Calque_1
 62
1
100
AcDbLine
 10
-147.520500
 20
128.255952
 30
0.0
 11
-142.203110
 21
128.255952
 31
0.0
  0
LINE
  5
29b
100
AcDbEntity
  8
Calque_1
 62
1
100
AcDbLine
 10
-142.203110
 20
128.255952
 30
0.0
 11
-142.203110
 21
125.255952
 31
0.0
  0
LINE
  5
29c
100
AcDbEntity
  8
Calque_1
 62
1
100
AcDbLine
 10
-142.203110
 20
125.255952
 30
0.0
 11
-140.035720
 21
125.255952
 31
0.0
  0
LINE
  5
29d
100
AcDbEntity
  8
Calque_1
 62
1
100
AcDbLine
 10
-140.035720
 20
125.255952
 30
0.0
 11
-140.035720
 21
117.305952
 31
0.0
  0
LINE
  5
29e
100
AcDbEntity
  8
Calque_1
 62
1
100
AcDbLine
 10
-140.035720
 20
117.305952
 30
0.0
 11
-137.035720
 21
117.305952
 31
0.0
  0
LINE
  5
29f
100
AcDbEntity
  8
Calque_1
 62
1
100
AcDbLine
 10
-137.035720
 20
117.305952
 30
0.0
 11
-137.035720
 21
109.205952
 31
0.0
  0
LINE
  5
2a0
100
AcDbEntity
  8
Calque_1
 62
1
100
AcDbLine
 10
-137.035720
 20
109.205952
 30
0.0
 11
-140.035720
 21
109.205952
 31
0.0
  0
LINE
  5
2a1
100
AcDbEntity
  8
Calque_1
 62
1
100
AcDbLine
 10
-140.035720
 20
109.205952
 30
0.0
 11
-140.035720
 21
101.255952
 31
0.0
  0
LINE
  5
2a2
100
AcDbEntity
  8
Calque_1
 62
1
100
AcDbLine
 10
-140.035720
 20
101.255952
 30
0.0
 11
-142.203110
 21
101.255952
 31
0.0
  0
LINE
  5
2a3
100
AcDbEntity
  8
Calque_1
 62
1
100
AcDbLine
 10
-142.203110
 20
101.255952
 30
0.0
 11
-142.203110
 21
98.255952
 31
0.0
  0
LINE
  5
2a4
100
AcDbEntity
  8
Calque_1
 62
1
100
AcDbLine
 10
-142.203110
 20
98.255952
 30
0.0
 11
-147.520500
 21
98.255952
 31
0.0
  0
LINE
  5
2a5
100
AcDbEntity
  8
Calque_1
 62
1
100
AcDbLine
 10
-147.520500
 20
98.255952
 30
0.0
 11
-147.520500
 21
101.255952
 31
0.0
  0
LINE
  5
2a6
100
AcDbEntity
  8
Calque_1
 62
1
100
AcDbLine
 10
-147.520500
 20
101.255952
 30
0.0
 11
-152.637890
 21
101.255952
 31
0.0
  0
LINE
  5
2a7
100
AcDbEntity
  8
Calque_1
 62
1
100
AcDbLine
 10
-152.637890
 20
101.255952
 30
0.0
 11
-152.637890
 21
98.255952
 31
0.0
  0
LINE
  5
2a8
100
AcDbEntity
  8
Calque_1
 62
1
100
AcDbLine
 10
-152.637890
 20
98.255952
 30
0.0
 11
-157.955280
 21
98.255952
 31
0.0
  0
LINE
  5
2a9
100
AcDbEntity
  8
Calque_1
 62
1
100
AcDbLine
 10
-157.955280
 20
98.255952
 30
0.0
 11
-157.955280
 21
101.255952
 31
0.0
  0
LINE
  5
2aa
100
AcDbEntity
  8
Calque_1
 62
1
100
AcDbLine
 10
-157.955280
 20
101.255952
 30
0.0
 11
-163.072670
 21
101.255952
 31
0.0
  0
LINE
  5
2ab
100
AcDbEntity
  8
Calque_1
 62
1
100
AcDbLine
 10
-163.072670
 20
101.255952
 30
0.0
 11
-163.072670
 21
98.255952
 31
0.0
  0
LINE
  5
2ac
100
AcDbEntity
  8
Calque_1
 62
1
100
AcDbLine
 10
-163.072670
 20
98.255952
 30
0.0
 11
-168.390070
 21
98.255952
 31
0.0
  0
LINE
  5
2ad
100
AcDbEntity
  8
Calque_1
 62
1
100
AcDbLine
 10
-168.390070
 20
98.255952
 30
0.0
 11
-168.390070
 21
101.255952
 31
0.0
  0
LINE
  5
2ae
100
AcDbEntity
  8
Calque_1
 62
1
100
AcDbLine
 10
-168.390070
 20
101.255952
 30
0.0
 11
-173.507460
 21
101.255952
 31
0.0
  0
LINE
  5
2af
100
AcDbEntity
  8
Calque_1
 62
1
100
AcDbLine
 10
-173.507460
 20
101.255952
 30
0.0
 11
-173.507460
 21
98.255952
 31
0.0
  0
LINE
  5
2b0
100
AcDbEntity
  8
Calque_1
 62
1
100
AcDbLine
 10
-173.507460
 20
98.255952
 30
0.0
 11
-178.824850
 21
98.255952
 31
0.0
  0
LINE
  5
2b1
100
AcDbEntity
  8
Calque_1
 62
1
100
AcDbLine
 10
-178.824850
 20
98.255952
 30
0.0
 11
-178.824850
 21
101.255952
 31
0.0
  0
LINE
  5
2b2
100
AcDbEntity
  8
Calque_1
 62
1
100
AcDbLine
 10
-178.824850
 20
101.255952
 30
0.0
 11
-183.942240
 21
101.255952
 31
0.0
  0
LINE
  5
2b3
100
AcDbEntity
  8
Calque_1
 62
1
100
AcDbLine
 10
-183.942240
 20
101.255952
 30
0.0
 11
-183.942240
 21
98.255952
 31
0.0
  0
LINE
  5
2b4
100
AcDbEntity
  8
Calque_1
 62
1
100
AcDbLine
 10
-183.942240
 20
98.255952
 30
0.0
 11
-189.259630
 21
98.255952
 31
0.0
  0
LINE
  5
2b5
100
AcDbEntity
  8
Calque_1
 62
1
100
AcDbLine
 10
-189.259630
 20
98.255952
 30
0.0
 11
-189.259630
 21
101.255952
 31
0.0
  0
LINE
  5
2b6
100
AcDbEntity
  8
Calque_1
 62
1
100
AcDbLine
 10
-189.259630
 20
101.255952
 30
0.0
 11
-194.377020
 21
101.255952
 31
0.0
  0
LINE
  5
2b7
100
AcDbEntity
  8
Calque_1
 62
1
100
AcDbLine
 10
-194.377020
 20
101.255952
 30
0.0
 11
-194.377020
 21
98.255952
 31
0.0
  0
LINE
  5
2b8
100
AcDbEntity
  8
Calque_1
 62
1
100
AcDbLine
 10
-194.377020
 20
98.255952
 30
0.0
 11
-199.694410
 21
98.255952
 31
0.0
  0
LINE
  5
2b9
100
AcDbEntity
  8
Calque_1
 62
1
100
AcDbLine
 10
-199.694410
 20
98.255952
 30
0.0
 11
-199.694410
 21
101.255952
 31
0.0
  0
LINE
  5
2ba
100
AcDbEntity
  8
Calque_1
 62
1
100
AcDbLine
 10
-199.694410
 20
101.255952
 30
0.0
 11
-204.811800
 21
101.255952
 31
0.0
  0
LINE
  5
2bb
100
AcDbEntity
  8
Calque_1
 62
1
100
AcDbLine
 10
-204.811800
 20
101.255952
 30
0.0
 11
-204.811800
 21
98.255952
 31
0.0
  0
LINE
  5
2bc
100
AcDbEntity
  8
Calque_1
 62
1
100
AcDbLine
 10
-204.811800
 20
98.255952
 30
0.0
 11
-210.129200
 21
98.255952
 31
0.0
  0
LINE
  5
2bd
100
AcDbEntity
  8
Calque_1
 62
1
100
AcDbLine
 10
-210.129200
 20
98.255952
 30
0.0
 11
-210.129200
 21
101.255952
 31
0.0
  0
LINE
  5
2be
100
AcDbEntity
  8
Calque_1
 62
1
100
AcDbLine
 10
-210.129200
 20
101.255952
 30
0.0
 11
-215.246590
 21
101.255952
 31
0.0
  0
LINE
  5
2bf
100
AcDbEntity
  8
Calque_1
 62
1
100
AcDbLine
 10
-215.246590
 20
101.255952
 30
0.0
 11
-215.246590
 21
98.255952
 31
0.0
  0
LINE
  5
2c0
100
AcDbEntity
  8
Calque_1
 62
1
100
AcDbLine
 10
-215.246590
 20
98.255952
 30
0.0
 11
-220.563980
 21
98.255952
 31
0.0
  0
LINE
  5
2c1
100
AcDbEntity
  8
Calque_1
 62
1
100
AcDbLine
 10
-220.563980
 20
98.255952
 30
0.0
 11
-220.563980
 21
101.255952
 31
0.0
  0
LINE
  5
2c2
100
AcDbEntity
  8
Calque_1
 62
1
100
AcDbLine
 10
-220.563980
 20
101.255952
 30
0.0
 11
-225.681370
 21
101.255952
 31
0.0
  0
LINE
  5
2c3
100
AcDbEntity
  8
Calque_1
 62
1
100
AcDbLine
 10
-225.681370
 20
101.255952
 30
0.0
 11
-225.681370
 21
98.255952
 31
0.0
  0
LINE
  5
2c4
100
AcDbEntity
  8
Calque_1
 62
1
100
AcDbLine
 10
-225.681370
 20
98.255952
 30
0.0
 11
-230.998760
 21
98.255952
 31
0.0
  0
LINE
  5
2c5
100
AcDbEntity
  8
Calque_1
 62
1
100
AcDbLine
 10
-230.998760
 20
98.255952
 30
0.0
 11
-230.998760
 21
101.255952
 31
0.0
  0
LINE
  5
2c6
100
AcDbEntity
  8
Calque_1
 62
1
100
AcDbLine
 10
-230.998760
 20
101.255952
 30
0.0
 11
-236.116150
 21
101.255952
 31
0.0
  0
LINE
  5
2c7
100
AcDbEntity
  8
Calque_1
 62
1
100
AcDbLine
 10
-236.116150
 20
101.255952
 30
0.0
 11
-236.116150
 21
98.255952
 31
0.0
  0
LINE
  5
2c8
100
AcDbEntity
  8
Calque_1
 62
1
100
AcDbLine
 10
-236.116150
 20
98.255952
 30
0.0
 11
-241.433540
 21
98.255952
 31
0.0
  0
LINE
  5
2c9
100
AcDbEntity
  8
Calque_1
 62
1
100
AcDbLine
 10
-241.433540
 20
98.255952
 30
0.0
 11
-241.433540
 21
101.255952
 31
0.0
  0
LINE
  5
2ca
100
AcDbEntity
  8
Calque_1
 62
1
100
AcDbLine
 10
-241.433540
 20
101.255952
 30
0.0
 11
-246.550940
 21
101.255952
 31
0.0
  0
LINE
  5
2cb
100
AcDbEntity
  8
Calque_1
 62
1
100
AcDbLine
 10
-246.550940
 20
101.255952
 30
0.0
 11
-246.550940
 21
98.255952
 31
0.0
  0
LINE
  5
2cc
100
AcDbEntity
  8
Calque_1
 62
1
100
AcDbLine
 10
-246.550940
 20
98.255952
 30
0.0
 11
-251.868330
 21
98.255952
 31
0.0
  0
LINE
  5
2cd
100
AcDbEntity
  8
Calque_1
 62
1
100
AcDbLine
 10
-251.868330
 20
98.255952
 30
0.0
 11
-251.868330
 21
101.255952
 31
0.0
  0
LINE
  5
2ce
100
AcDbEntity
  8
Calque_1
 62
1
100
AcDbLine
 10
-251.868330
 20
101.255952
 30
0.0
 11
-254.035720
 21
101.255952
 31
0.0
  0
LINE
  5
2cf
100
AcDbEntity
  8
Calque_1
 62
1
100
AcDbLine
 10
-254.035720
 20
101.255952
 30
0.0
 11
-254.035720
 21
109.205952
 31
0.0
  0
LINE
  5
2d0
100
AcDbEntity
  8
Calque_1
 62
1
100
AcDbLine
 10
-254.035720
 20
109.205952
 30
0.0
 11
-257.035720
 21
109.205952
 31
0.0
  0
LINE
  5
2d1
100
AcDbEntity
  8
Calque_1
 62
1
100
AcDbLine
 10
-257.035720
 20
109.205952
 30
0.0
 11
-257.035720
 21
117.305952
 31
0.0
  0
LINE
  5
2d2
100
AcDbEntity
  8
Calque_1
 62
1
100
AcDbLine
 10
-257.035720
 20
117.305952
 30
0.0
 11
-254.035720
 21
117.305952
 31
0.0
  0
LINE
  5
2d3
100
AcDbEntity
  8
Calque_1
 62
1
100
AcDbLine
 10
-254.035720
 20
117.305952
 30
0.0
 11
-254.035720
 21
125.255952
 31
0.0
  0
LINE
  5
2d4
100
AcDbEntity
  8
Calque_1
 62
1
100
AcDbLine
 10
-377.035718
 20
125.255952
 30
0.0
 11
-374.868326
 21
125.255952
 31
0.0
  0
LINE
  5
2d5
100
AcDbEntity
  8
Calque_1
 62
1
100
AcDbLine
 10
-374.868326
 20
125.255952
 30
0.0
 11
-374.868326
 21
128.255952
 31
0.0
  0
LINE
  5
2d6
100
AcDbEntity
  8
Calque_1
 62
1
100
AcDbLine
 10
-374.868326
 20
128.255952
 30
0.0
 11
-369.550935
 21
128.255952
 31
0.0
  0
LINE
  5
2d7
100
AcDbEntity
  8
Calque_1
 62
1
100
AcDbLine
 10
-369.550935
 20
128.255952
 30
0.0
 11
-369.550935
 21
125.255952
 31
0.0
  0
LINE
  5
2d8
100
AcDbEntity
  8
Calque_1
 62
1
100
AcDbLine
 10
-369.550935
 20
125.255952
 30
0.0
 11
-364.433544
 21
125.255952
 31
0.0
  0
LINE
  5
2d9
100
AcDbEntity
  8
Calque_1
 62
1
100
AcDbLine
 10
-364.433544
 20
125.255952
 30
0.0
 11
-364.433544
 21
128.255952
 31
0.0
  0
LINE
  5
2da
100
AcDbEntity
  8
Calque_1
 62
1
100
AcDbLine
 10
-364.433544
 20
128.255952
 30
0.0
 11
-359.116152
 21
128.255952
 31
0.0
  0
LINE
  5
2db
100
AcDbEntity
  8
Calque_1
 62
1
100
AcDbLine
 10
-359.116152
 20
128.255952
 30
0.0
 11
-359.116152
 21
125.255952
 31
0.0
  0
LINE
  5
2dc
100
AcDbEntity
  8
Calque_1
 62
1
100
AcDbLine
 10
-359.116152
 20
125.255952
 30
0.0
 11
-353.998761
 21
125.255952
 31
0.0
  0
LINE
  5
2dd
100
AcDbEntity
  8
Calque_1
 62
1
100
AcDbLine
 10
-353.998761
 20
125.255952
 30
0.0
 11
-353.998761
 21
128.255952
 31
0.0
  0
LINE
  5
2de
100
AcDbEntity
  8
Calque_1
 62
1
100
AcDbLine
 10
-353.998761
 20
128.255952
 30
0.0
 11
-348.681370
 21
128.255952
 31
0.0
  0
LINE
  5
2df
100
AcDbEntity
  8
Calque_1
 62
1
100
AcDbLine
 10
-348.681370
 20
128.255952
 30
0.0
 11
-348.681370
 21
125.255952
 31
0.0
  0
LINE
  5
2e0
100
AcDbEntity
  8
Calque_1
 62
1
100
AcDbLine
 10
-348.681370
 20
125.255952
 30
0.0
 11
-343.563979
 21
125.255952
 31
0.0
  0
LINE
  5
2e1
100
AcDbEntity
  8
Calque_1
 62
1
100
AcDbLine
 10
-343.563979
 20
125.255952
 30
0.0
 11
-343.563979
 21
128.255952
 31
0.0
  0
LINE
  5
2e2
100
AcDbEntity
  8
Calque_1
 62
1
100
AcDbLine
 10
-343.563979
 20
128.255952
 30
0.0
 11
-338.246587
 21
128.255952
 31
0.0
  0
LINE
  5
2e3
100
AcDbEntity
  8
Calque_1
 62
1
100
AcDbLine
 10
-338.246587
 20
128.255952
 30
0.0
 11
-338.246587
 21
125.255952
 31
0.0
  0
LINE
  5
2e4
100
AcDbEntity
  8
Calque_1
 62
1
100
AcDbLine
 10
-338.246587
 20
125.255952
 30
0.0
 11
-333.129196
 21
125.255952
 31
0.0
  0
LINE
  5
2e5
100
AcDbEntity
  8
Calque_1
 62
1
100
AcDbLine
 10
-333.129196
 20
125.255952
 30
0.0
 11
-333.129196
 21
128.255952
 31
0.0
  0
LINE
  5
2e6
100
AcDbEntity
  8
Calque_1
 62
1
100
AcDbLine
 10
-333.129196
 20
128.255952
 30
0.0
 11
-327.811805
 21
128.255952
 31
0.0
  0
LINE
  5
2e7
100
AcDbEntity
  8
Calque_1
 62
1
100
AcDbLine
 10
-327.811805
 20
128.255952
 30
0.0
 11
-327.811805
 21
125.255952
 31
0.0
  0
LINE
  5
2e8
100
AcDbEntity
  8
Calque_1
 62
1
100
AcDbLine
 10
-327.811805
 20
125.255952
 30
0.0
 11
-322.694413
 21
125.255952
 31
0.0
  0
LINE
  5
2e9
100
AcDbEntity
  8
Calque_1
 62
1
100
AcDbLine
 10
-322.694413
 20
125.255952
 30
0.0
 11
-322.694413
 21
128.255952
 31
0.0
  0
LINE
  5
2ea
100
AcDbEntity
  8
Calque_1
 62
1
100
AcDbLine
 10
-322.694413
 20
128.255952
 30
0.0
 11
-317.377022
 21
128.255952
 31
0.0
  0
LINE
  5
2eb
100
AcDbEntity
  8
Calque_1
 62
1
100
AcDbLine
 10
-317.377022
 20
128.255952
 30
0.0
 11
-317.377022
 21
125.255952
 31
0.0
  0
LINE
  5
2ec
100
AcDbEntity
  8
Calque_1
 62
1
100
AcDbLine
 10
-317.377022
 20
125.255952
 30
0.0
 11
-312.259631
 21
125.255952
 31
0.0
  0
LINE
  5
2ed
100
AcDbEntity
  8
Calque_1
 62
1
100
AcDbLine
 10
-312.259631
 20
125.255952
 30
0.0
 11
-312.259631
 21
128.255952
 31
0.0
  0
LINE
  5
2ee
100
AcDbEntity
  8
Calque_1
 62
1
100
AcDbLine
 10
-312.259631
 20
128.255952
 30
0.0
 11
-306.942239
 21
128.255952
 31
0.0
  0
LINE
  5
2ef
100
AcDbEntity
  8
Calque_1
 62
1
100
AcDbLine
 10
-306.942239
 20
128.255952
 30
0.0
 11
-306.942239
 21
125.255952
 31
0.0
  0
LINE
  5
2f0
100
AcDbEntity
  8
Calque_1
 62
1
100
AcDbLine
 10
-306.942239
 20
125.255952
 30
0.0
 11
-301.824848
 21
125.255952
 31
0.0
  0
LINE
  5
2f1
100
AcDbEntity
  8
Calque_1
 62
1
100
AcDbLine
 10
-301.824848
 20
125.255952
 30
0.0
 11
-301.824848
 21
128.255952
 31
0.0
  0
LINE
  5
2f2
100
AcDbEntity
  8
Calque_1
 62
1
100
AcDbLine
 10
-301.824848
 20
128.255952
 30
0.0
 11
-296.507457
 21
128.255952
 31
0.0
  0
LINE
  5
2f3
100
AcDbEntity
  8
Calque_1
 62
1
100
AcDbLine
 10
-296.507457
 20
128.255952
 30
0.0
 11
-296.507457
 21
125.255952
 31
0.0
  0
LINE
  5
2f4
100
AcDbEntity
  8
Calque_1
 62
1
100
AcDbLine
 10
-296.507457
 20
125.255952
 30
0.0
 11
-291.390066
 21
125.255952
 31
0.0
  0
LINE
  5
2f5
100
AcDbEntity
  8
Calque_1
 62
1
100
AcDbLine
 10
-291.390066
 20
125.255952
 30
0.0
 11
-291.390066
 21
128.255952
 31
0.0
  0
LINE
  5
2f6
100
AcDbEntity
  8
Calque_1
 62
1
100
AcDbLine
 10
-291.390066
 20
128.255952
 30
0.0
 11
-286.072674
 21
128.255952
 31
0.0
  0
LINE
  5
2f7
100
AcDbEntity
  8
Calque_1
 62
1
100
AcDbLine
 10
-286.072674
 20
128.255952
 30
0.0
 11
-286.072674
 21
125.255952
 31
0.0
  0
LINE
  5
2f8
100
AcDbEntity
  8
Calque_1
 62
1
100
AcDbLine
 10
-286.072674
 20
125.255952
 30
0.0
 11
-280.955280
 21
125.255952
 31
0.0
  0
LINE
  5
2f9
100
AcDbEntity
  8
Calque_1
 62
1
100
AcDbLine
 10
-280.955280
 20
125.255952
 30
0.0
 11
-280.955280
 21
128.255952
 31
0.0
  0
LINE
  5
2fa
100
AcDbEntity
  8
Calque_1
 62
1
100
AcDbLine
 10
-280.955280
 20
128.255952
 30
0.0
 11
-275.637890
 21
128.255952
 31
0.0
  0
LINE
  5
2fb
100
AcDbEntity
  8
Calque_1
 62
1
100
AcDbLine
 10
-275.637890
 20
128.255952
 30
0.0
 11
-275.637890
 21
125.255952
 31
0.0
  0
LINE
  5
2fc
100
AcDbEntity
  8
Calque_1
 62
1
100
AcDbLine
 10
-275.637890
 20
125.255952
 30
0.0
 11
-270.520500
 21
125.255952
 31
0.0
  0
LINE
  5
2fd
100
AcDbEntity
  8
Calque_1
 62
1
100
AcDbLine
 10
-270.520500
 20
125.255952
 30
0.0
 11
-270.520500
 21
128.255952
 31
0.0
  0
LINE
  5
2fe
100
AcDbEntity
  8
Calque_1
 62
1
100
AcDbLine
 10
-270.520500
 20
128.255952
 30
0.0
 11
-265.203110
 21
128.255952
 31
0.0
  0
LINE
  5
2ff
100
AcDbEntity
  8
Calque_1
 62
1
100
AcDbLine
 10
-265.203110
 20
128.255952
 30
0.0
 11
-265.203110
 21
125.255952
 31
0.0
  0
LINE
  5
300
100
AcDbEntity
  8
Calque_1
 62
1
100
AcDbLine
 10
-265.203110
 20
125.255952
 30
0.0
 11
-263.035720
 21
125.255952
 31
0.0
  0
LINE
  5
301
100
AcDbEntity
  8
Calque_1
 62
1
100
AcDbLine
 10
-263.035720
 20
125.255952
 30
0.0
 11
-263.035720
 21
117.305952
 31
0.0
  0
LINE
  5
302
100
AcDbEntity
  8
Calque_1
 62
1
100
AcDbLine
 10
-263.035720
 20
117.305952
 30
0.0
 11
-260.035720
 21
117.305952
 31
0.0
  0
LINE
  5
303
100
AcDbEntity
  8
Calque_1
 62
1
100
AcDbLine
 10
-260.035720
 20
117.305952
 30
0.0
 11
-260.035720
 21
109.205952
 31
0.0
  0
LINE
  5
304
100
AcDbEntity
  8
Calque_1
 62
1
100
AcDbLine
 10
-260.035720
 20
109.205952
 30
0.0
 11
-263.035720
 21
109.205952
 31
0.0
  0
LINE
  5
305
100
AcDbEntity
  8
Calque_1
 62
1
100
AcDbLine
 10
-263.035720
 20
109.205952
 30
0.0
 11
-263.035720
 21
101.255952
 31
0.0
  0
LINE
  5
306
100
AcDbEntity
  8
Calque_1
 62
1
100
AcDbLine
 10
-263.035720
 20
101.255952
 30
0.0
 11
-265.203110
 21
101.255952
 31
0.0
  0
LINE
  5
307
100
AcDbEntity
  8
Calque_1
 62
1
100
AcDbLine
 10
-265.203110
 20
101.255952
 30
0.0
 11
-265.203110
 21
98.255952
 31
0.0
  0
LINE
  5
308
100
AcDbEntity
  8
Calque_1
 62
1
100
AcDbLine
 10
-265.203110
 20
98.255952
 30
0.0
 11
-270.520500
 21
98.255952
 31
0.0
  0
LINE
  5
309
100
AcDbEntity
  8
Calque_1
 62
1
100
AcDbLine
 10
-270.520500
 20
98.255952
 30
0.0
 11
-270.520500
 21
101.255952
 31
0.0
  0
LINE
  5
30a
100
AcDbEntity
  8
Calque_1
 62
1
100
AcDbLine
 10
-270.520500
 20
101.255952
 30
0.0
 11
-275.637890
 21
101.255952
 31
0.0
  0
LINE
  5
30b
100
AcDbEntity
  8
Calque_1
 62
1
100
AcDbLine
 10
-275.637890
 20
101.255952
 30
0.0
 11
-275.637890
 21
98.255952
 31
0.0
  0
LINE
  5
30c
100
AcDbEntity
  8
Calque_1
 62
1
100
AcDbLine
 10
-275.637890
 20
98.255952
 30
0.0
 11
-280.955280
 21
98.255952
 31
0.0
  0
LINE
  5
30d
100
AcDbEntity
  8
Calque_1
 62
1
100
AcDbLine
 10
-280.955280
 20
98.255952
 30
0.0
 11
-280.955280
 21
101.255952
 31
0.0
  0
LINE
  5
30e
100
AcDbEntity
  8
Calque_1
 62
1
100
AcDbLine
 10
-280.955280
 20
101.255952
 30
0.0
 11
-286.072674
 21
101.255952
 31
0.0
  0
LINE
  5
30f
100
AcDbEntity
  8
Calque_1
 62
1
100
AcDbLine
 10
-286.072674
 20
101.255952
 30
0.0
 11
-286.072674
 21
98.255952
 31
0.0
  0
LINE
  5
310
100
AcDbEntity
  8
Calque_1
 62
1
100
AcDbLine
 10
-286.072674
 20
98.255952
 30
0.0
 11
-291.390066
 21
98.255952
 31
0.0
  0
LINE
  5
311
100
AcDbEntity
  8
Calque_1
 62
1
100
AcDbLine
 10
-291.390066
 20
98.255952
 30
0.0
 11
-291.390066
 21
101.255952
 31
0.0
  0
LINE
  5
312
100
AcDbEntity
  8
Calque_1
 62
1
100
AcDbLine
 10
-291.390066
 20
101.255952
 30
0.0
 11
-296.507457
 21
101.255952
 31
0.0
  0
LINE
  5
313
100
AcDbEntity
  8
Calque_1
 62
1
100
AcDbLine
 10
-296.507457
 20
101.255952
 30
0.0
 11
-296.507457
 21
98.255952
 31
0.0
  0
LINE
  5
314
100
AcDbEntity
  8
Calque_1
 62
1
100
AcDbLine
 10
-296.507457
 20
98.255952
 30
0.0
 11
-301.824848
 21
98.255952
 31
0.0
  0
LINE
  5
315
100
AcDbEntity
  8
Calque_1
 62
1
100
AcDbLine
 10
-301.824848
 20
98.255952
 30
0.0
 11
-301.824848
 21
101.255952
 31
0.0
  0
LINE
  5
316
100
AcDbEntity
  8
Calque_1
 62
1
100
AcDbLine
 10
-301.824848
 20
101.255952
 30
0.0
 11
-306.942239
 21
101.255952
 31
0.0
  0
LINE
  5
317
100
AcDbEntity
  8
Calque_1
 62
1
100
AcDbLine
 10
-306.942239
 20
101.255952
 30
0.0
 11
-306.942239
 21
98.255952
 31
0.0
  0
LINE
  5
318
100
AcDbEntity
  8
Calque_1
 62
1
100
AcDbLine
 10
-306.942239
 20
98.255952
 30
0.0
 11
-312.259631
 21
98.255952
 31
0.0
  0
LINE
  5
319
100
AcDbEntity
  8
Calque_1
 62
1
100
AcDbLine
 10
-312.259631
 20
98.255952
 30
0.0
 11
-312.259631
 21
101.255952
 31
0.0
  0
LINE
  5
31a
100
AcDbEntity
  8
Calque_1
 62
1
100
AcDbLine
 10
-312.259631
 20
101.255952
 30
0.0
 11
-317.377022
 21
101.255952
 31
0.0
  0
LINE
  5
31b
100
AcDbEntity
  8
Calque_1
 62
1
100
AcDbLine
 10
-317.377022
 20
101.255952
 30
0.0
 11
-317.377022
 21
98.255952
 31
0.0
  0
LINE
  5
31c
100
AcDbEntity
  8
Calque_1
 62
1
100
AcDbLine
 10
-317.377022
 20
98.255952
 30
0.0
 11
-322.694413
 21
98.255952
 31
0.0
  0
LINE
  5
31d
100
AcDbEntity
  8
Calque_1
 62
1
100
AcDbLine
 10
-322.694413
 20
98.255952
 30
0.0
 11
-322.694413
 21
101.255952
 31
0.0
  0
LINE
  5
31e
100
AcDbEntity
  8
Calque_1
 62
1
100
AcDbLine
 10
-322.694413
 20
101.255952
 30
0.0
 11
-327.811805
 21
101.255952
 31
0.0
  0
LINE
  5
31f
100
AcDbEntity
  8
Calque_1
 62
1
100
AcDbLine
 10
-327.811805
 20
101.255952
 30
0.0
 11
-327.811805
 21
98.255952
 31
0.0
  0
LINE
  5
320
100
AcDbEntity
  8
Calque_1
 62
1
100
AcDbLine
 10
-327.811805
 20
98.255952
 30
0.0
 11
-333.129196
 21
98.255952
 31
0.0
  0
LINE
  5
321
100
AcDbEntity
  8
Calque_1
 62
1
100
AcDbLine
 10
-333.129196
 20
98.255952
 30
0.0
 11
-333.129196
 21
101.255952
 31
0.0
  0
LINE
  5
322
100
AcDbEntity
  8
Calque_1
 62
1
100
AcDbLine
 10
-333.129196
 20
101.255952
 30
0.0
 11
-338.246587
 21
101.255952
 31
0.0
  0
LINE
  5
323
100
AcDbEntity
  8
Calque_1
 62
1
100
AcDbLine
 10
-338.246587
 20
101.255952
 30
0.0
 11
-338.246587
 21
98.255952
 31
0.0
  0
LINE
  5
324
100
AcDbEntity
  8
Calque_1
 62
1
100
AcDbLine
 10
-338.246587
 20
98.255952
 30
0.0
 11
-343.563979
 21
98.255952
 31
0.0
  0
LINE
  5
325
100
AcDbEntity
  8
Calque_1
 62
1
100
AcDbLine
 10
-343.563979
 20
98.255952
 30
0.0
 11
-343.563979
 21
101.255952
 31
0.0
  0
LINE
  5
326
100
AcDbEntity
  8
Calque_1
 62
1
100
AcDbLine
 10
-343.563979
 20
101.255952
 30
0.0
 11
-348.681370
 21
101.255952
 31
0.0
  0
LINE
  5
327
100
AcDbEntity
  8
Calque_1
 62
1
100
AcDbLine
 10
-348.681370
 20
101.255952
 30
0.0
 11
-348.681370
 21
98.255952
 31
0.0
  0
LINE
  5
328
100
AcDbEntity
  8
Calque_1
 62
1
100
AcDbLine
 10
-348.681370
 20
98.255952
 30
0.0
 11
-353.998761
 21
98.255952
 31
0.0
  0
LINE
  5
329
100
AcDbEntity
  8
Calque_1
 62
1
100
AcDbLine
 10
-353.998761
 20
98.255952
 30
0.0
 11
-353.998761
 21
101.255952
 31
0.0
  0
LINE
  5
32a
100
AcDbEntity
  8
Calque_1
 62
1
100
AcDbLine
 10
-353.998761
 20
101.255952
 30
0.0
 11
-359.116152
 21
101.255952
 31
0.0
  0
LINE
  5
32b
100
AcDbEntity
  8
Calque_1
 62
1
100
AcDbLine
 10
-359.116152
 20
101.255952
 30
0.0
 11
-359.116152
 21
98.255952
 31
0.0
  0
LINE
  5
32c
100
AcDbEntity
  8
Calque_1
 62
1
100
AcDbLine
 10
-359.116152
 20
98.255952
 30
0.0
 11
-364.433544
 21
98.255952
 31
0.0
  0
LINE
  5
32d
100
AcDbEntity
  8
Calque_1
 62
1
100
AcDbLine
 10
-364.433544
 20
98.255952
 30
0.0
 11
-364.433544
 21
101.255952
 31
0.0
  0
LINE
  5
32e
100
AcDbEntity
  8
Calque_1
 62
1
100
AcDbLine
 10
-364.433544
 20
101.255952
 30
0.0
 11
-369.550935
 21
101.255952
 31
0.0
  0
LINE
  5
32f
100
AcDbEntity
  8
Calque_1
 62
1
100
AcDbLine
 10
-369.550935
 20
101.255952
 30
0.0
 11
-369.550935
 21
98.255952
 31
0.0
  0
LINE
  5
330
100
AcDbEntity
  8
Calque_1
 62
1
100
AcDbLine
 10
-369.550935
 20
98.255952
 30
0.0
 11
-374.868326
 21
98.255952
 31
0.0
  0
LINE
  5
331
100
AcDbEntity
  8
Calque_1
 62
1
100
AcDbLine
 10
-374.868326
 20
98.255952
 30
0.0
 11
-374.868326
 21
101.255952
 31
0.0
  0
LINE
  5
332
100
AcDbEntity
  8
Calque_1
 62
1
100
AcDbLine
 10
-374.868326
 20
101.255952
 30
0.0
 11
-377.035718
 21
101.255952
 31
0.0
  0
LINE
  5
333
100
AcDbEntity
  8
Calque_1
 62
1
100
AcDbLine
 10
-377.035718
 20
101.255952
 30
0.0
 11
-377.035718
 21
109.205952
 31
0.0
  0
LINE
  5
334
100
AcDbEntity
  8
Calque_1
 62
1
100
AcDbLine
 10
-377.035718
 20
109.205952
 30
0.0
 11
-380.035718
 21
109.205952
 31
0.0
  0
LINE
  5
335
100
AcDbEntity
  8
Calque_1
 62
1
100
AcDbLine
 10
-380.035718
 20
109.205952
 30
0.0
 11
-380.035718
 21
117.305952
 31
0.0
  0
LINE
  5
336
100
AcDbEntity
  8
Calque_1
 62
1
100
AcDbLine
 10
-380.035718
 20
117.305952
 30
0.0
 11
-377.035718
 21
117.305952
 31
0.0
  0
LINE
  5
337
100
AcDbEntity
  8
Calque_1
 62
1
100
AcDbLine
 10
-377.035718
 20
117.305952
 30
0.0
 11
-377.035718
 21
125.255952
 31
0.0
  0
SPLINE
  5
338
100
AcDbEntity
  8
Calque_1
 62
7
100
AcDbSpline
 70
8
 71
3
 72
8
 73
4
 74
0
 40
0
 40
0
 40
0
 40
0
 40
1
 40
1
 40
1
 40
1
 10
-356.275003
 20
263.348962
 30
0.0
 10
-356.275006
 20
260.061144
 30
0.0
 10
-359.414142
 20
257.395842
 30
0.0
 10
-363.286461
 20
257.395842
 30
0.0
  0
SPLINE
  5
339
100
AcDbEntity
  8
Calque_1
 62
7
100
AcDbSpline
 70
8
 71
3
 72
8
 73
4
 74
0
 40
0
 40
0
 40
0
 40
0
 40
1
 40
1
 40
1
 40
1
 10
-363.286461
 20
257.395842
 30
0.0
 10
-367.158780
 20
257.395842
 30
0.0
 10
-370.297916
 20
260.061144
 30
0.0
 10
-370.297919
 20
263.348962
 30
0.0
  0
SPLINE
  5
33a
100
AcDbEntity
  8
Calque_1
 62
7
100
AcDbSpline
 70
8
 71
3
 72
8
 73
4
 74
0
 40
0
 40
0
 40
0
 40
0
 40
1
 40
1
 40
1
 40
1
 10
-370.297919
 20
263.348962
 30
0.0
 10
-370.297921
 20
264.927830
 30
0.0
 10
-369.559216
 20
266.442032
 30
0.0
 10
-368.244313
 20
267.558460
 30
0.0
  0
SPLINE
  5
33b
100
AcDbEntity
  8
Calque_1
 62
7
100
AcDbSpline
 70
8
 71
3
 72
8
 73
4
 74
0
 40
0
 40
0
 40
0
 40
0
 40
1
 40
1
 40
1
 40
1
 10
-368.244313
 20
267.558460
 30
0.0
 10
-366.929409
 20
268.674889
 30
0.0
 10
-365.146016
 20
269.302092
 30
0.0
 10
-363.286461
 20
269.302092
 30
0.0
  0
SPLINE
  5
33c
100
AcDbEntity
  8
Calque_1
 62
7
100
AcDbSpline
 70
8
 71
3
 72
8
 73
4
 74
0
 40
0
 40
0
 40
0
 40
0
 40
1
 40
1
 40
1
 40
1
 10
-363.286461
 20
269.302092
 30
0.0
 10
-361.426906
 20
269.302092
 30
0.0
 10
-359.643513
 20
268.674889
 30
0.0
 10
-358.328609
 20
267.558460
 30
0.0
  0
SPLINE
  5
33d
100
AcDbEntity
  8
Calque_1
 62
7
100
AcDbSpline
 70
8
 71
3
 72
8
 73
4
 74
0
 40
0
 40
0
 40
0
 40
0
 40
1
 40
1
 40
1
 40
1
 10
-358.328609
 20
267.558460
 30
0.0
 10
-357.013706
 20
266.442032
 30
0.0
 10
-356.275001
 20
264.927830
 30
0.0
 10
-356.275003
 20
263.348962
 30
0.0
  0
LINE
  5
33e
100
AcDbEntity
  8
Calque_1
 62
7
100
AcDbLine
 10
-356.275003
 20
263.348962
 30
0.0
 11
-356.275003
 21
263.348962
 31
0.0
  0
SPLINE
  5
33f
100
AcDbEntity
  8
Calque_1
 62
7
100
AcDbSpline
 70
8
 71
3
 72
8
 73
4
 74
0
 40
0
 40
0
 40
0
 40
0
 40
1
 40
1
 40
1
 40
1
 10
-294.535722
 20
274.943962
 30
0.0
 10
-297.896109
 20
274.943960
 30
0.0
 10
-300.620686
 20
272.219458
 30
0.0
 10
-300.622280
 20
268.857572
 30
0.0
  0
SPLINE
  5
340
100
AcDbEntity
  8
Calque_1
 62
7
100
AcDbSpline
 70
8
 71
3
 72
8
 73
4
 74
0
 40
0
 40
0
 40
0
 40
0
 40
1
 40
1
 40
1
 40
1
 10
-300.622280
 20
268.857572
 30
0.0
 10
-300.620885
 20
265.495546
 30
0.0
 10
-297.896249
 20
262.770824
 30
0.0
 10
-294.535722
 20
262.770822
 30
0.0
  0
SPLINE
  5
341
100
AcDbEntity
  8
Calque_1
 62
7
100
AcDbSpline
 70
8
 71
3
 72
8
 73
4
 74
0
 40
0
 40
0
 40
0
 40
0
 40
1
 40
1
 40
1
 40
1
 10
-294.535722
 20
262.770822
 30
0.0
 10
-291.175192
 20
262.770821
 30
0.0
 10
-288.450553
 20
265.495543
 30
0.0
 10
-288.449158
 20
268.857572
 30
0.0
  0
SPLINE
  5
342
100
AcDbEntity
  8
Calque_1
 62
7
100
AcDbSpline
 70
8
 71
3
 72
8
 73
4
 74
0
 40
0
 40
0
 40
0
 40
0
 40
1
 40
1
 40
1
 40
1
 10
-288.449158
 20
268.857572
 30
0.0
 10
-288.450752
 20
272.219460
 30
0.0
 10
-291.175333
 20
274.943963
 30
0.0
 10
-294.535722
 20
274.943962
 30
0.0
  0
LINE
  5
343
100
AcDbEntity
  8
Calque_1
 62
7
100
AcDbLine
 10
-294.535722
 20
274.943962
 30
0.0
 11
-294.535722
 21
274.943962
 31
0.0
  0
SPLINE
  5
344
100
AcDbEntity
  8
Calque_1
 62
7
100
AcDbSpline
 70
8
 71
3
 72
8
 73
4
 74
0
 40
0
 40
0
 40
0
 40
0
 40
1
 40
1
 40
1
 40
1
 10
-294.535720
 20
252.570822
 30
0.0
 10
-295.975888
 20
252.570821
 30
0.0
 10
-297.143565
 20
251.403173
 30
0.0
 10
-297.144244
 20
249.962362
 30
0.0
  0
SPLINE
  5
345
100
AcDbEntity
  8
Calque_1
 62
7
100
AcDbSpline
 70
8
 71
3
 72
8
 73
4
 74
0
 40
0
 40
0
 40
0
 40
0
 40
1
 40
1
 40
1
 40
1
 10
-297.144244
 20
249.962362
 30
0.0
 10
-297.143643
 20
248.521496
 30
0.0
 10
-295.975943
 20
247.353763
 30
0.0
 10
-294.535720
 20
247.353762
 30
0.0
  0
SPLINE
  5
346
100
AcDbEntity
  8
Calque_1
 62
7
100
AcDbSpline
 70
8
 71
3
 72
8
 73
4
 74
0
 40
0
 40
0
 40
0
 40
0
 40
1
 40
1
 40
1
 40
1
 10
-294.535720
 20
247.353762
 30
0.0
 10
-293.095496
 20
247.353761
 30
0.0
 10
-291.927794
 20
248.521495
 30
0.0
 10
-291.927193
 20
249.962362
 30
0.0
  0
SPLINE
  5
347
100
AcDbEntity
  8
Calque_1
 62
7
100
AcDbSpline
 70
8
 71
3
 72
8
 73
4
 74
0
 40
0
 40
0
 40
0
 40
0
 40
1
 40
1
 40
1
 40
1
 10
-291.927193
 20
249.962362
 30
0.0
 10
-291.927872
 20
251.403174
 30
0.0
 10
-293.095550
 20
252.570823
 30
0.0
 10
-294.535720
 20
252.570822
 30
0.0
  0
LINE
  5
348
100
AcDbEntity
  8
Calque_1
 62
7
100
AcDbLine
 10
-294.535720
 20
252.570822
 30
0.0
 11
-294.535720
 21
252.570822
 31
0.0
  0
SPLINE
  5
349
100
AcDbEntity
  8
Calque_1
 62
7
100
AcDbSpline
 70
8
 71
3
 72
8
 73
4
 74
0
 40
0
 40
0
 40
0
 40
0
 40
1
 40
1
 40
1
 40
1
 10
-294.535720
 20
229.473012
 30
0.0
 10
-297.416056
 20
229.473010
 30
0.0
 10
-299.751409
 20
227.137713
 30
0.0
 10
-299.752766
 20
224.256092
 30
0.0
  0
SPLINE
  5
34a
100
AcDbEntity
  8
Calque_1
 62
7
100
AcDbSpline
 70
8
 71
3
 72
8
 73
4
 74
0
 40
0
 40
0
 40
0
 40
0
 40
1
 40
1
 40
1
 40
1
 10
-299.752766
 20
224.256092
 30
0.0
 10
-299.751564
 20
221.374361
 30
0.0
 10
-297.416166
 20
219.038894
 30
0.0
 10
-294.535720
 20
219.038892
 30
0.0
  0
SPLINE
  5
34b
100
AcDbEntity
  8
Calque_1
 62
7
100
AcDbSpline
 70
8
 71
3
 72
8
 73
4
 74
0
 40
0
 40
0
 40
0
 40
0
 40
1
 40
1
 40
1
 40
1
 10
-294.535720
 20
219.038892
 30
0.0
 10
-291.655274
 20
219.038893
 30
0.0
 10
-289.319874
 20
221.374361
 30
0.0
 10
-289.318672
 20
224.256092
 30
0.0
  0
SPLINE
  5
34c
100
AcDbEntity
  8
Calque_1
 62
7
100
AcDbSpline
 70
8
 71
3
 72
8
 73
4
 74
0
 40
0
 40
0
 40
0
 40
0
 40
1
 40
1
 40
1
 40
1
 10
-289.318672
 20
224.256092
 30
0.0
 10
-289.320029
 20
227.137714
 30
0.0
 10
-291.655383
 20
229.473011
 30
0.0
 10
-294.535720
 20
229.473012
 30
0.0
  0
LINE
  5
34d
100
AcDbEntity
  8
Calque_1
 62
7
100
AcDbLine
 10
-294.535720
 20
229.473012
 30
0.0
 11
-294.535720
 21
229.473012
 31
0.0
  0
SPLINE
  5
34e
100
AcDbEntity
  8
Calque_1
 62
7
100
AcDbSpline
 70
8
 71
3
 72
8
 73
4
 74
0
 40
0
 40
0
 40
0
 40
0
 40
1
 40
1
 40
1
 40
1
 10
-293.535724
 20
153.342522
 30
0.0
 10
-296.896117
 20
153.342520
 30
0.0
 10
-299.620696
 20
150.618005
 30
0.0
 10
-299.622276
 20
147.256112
 30
0.0
  0
SPLINE
  5
34f
100
AcDbEntity
  8
Calque_1
 62
7
100
AcDbSpline
 70
8
 71
3
 72
8
 73
4
 74
0
 40
0
 40
0
 40
0
 40
0
 40
1
 40
1
 40
1
 40
1
 10
-299.622276
 20
147.256112
 30
0.0
 10
-299.620873
 20
143.894094
 30
0.0
 10
-296.896242
 20
141.169384
 30
0.0
 10
-293.535724
 20
141.169382
 30
0.0
  0
SPLINE
  5
350
100
AcDbEntity
  8
Calque_1
 62
7
100
AcDbSpline
 70
8
 71
3
 72
8
 73
4
 74
0
 40
0
 40
0
 40
0
 40
0
 40
1
 40
1
 40
1
 40
1
 10
-293.535724
 20
141.169382
 30
0.0
 10
-290.175205
 20
141.169383
 30
0.0
 10
-287.450573
 20
143.894094
 30
0.0
 10
-287.449170
 20
147.256112
 30
0.0
  0
SPLINE
  5
351
100
AcDbEntity
  8
Calque_1
 62
7
100
AcDbSpline
 70
8
 71
3
 72
8
 73
4
 74
0
 40
0
 40
0
 40
0
 40
0
 40
1
 40
1
 40
1
 40
1
 10
-287.449170
 20
147.256112
 30
0.0
 10
-287.450750
 20
150.618005
 30
0.0
 10
-290.175330
 20
153.342521
 30
0.0
 10
-293.535724
 20
153.342522
 30
0.0
  0
LINE
  5
352
100
AcDbEntity
  8
Calque_1
 62
7
100
AcDbLine
 10
-293.535724
 20
153.342522
 30
0.0
 11
-293.535724
 21
153.342522
 31
0.0
  0
ENDSEC
  0
SECTION
  2
OBJECTS
  0
DICTIONARY
  5
C
330
0
100
AcDbDictionary
  3
ACAD_GROUP
350
D
  3
ACAD_MLINESTYLE
350
17
  0
DICTIONARY
  5
D
330
C
100
AcDbDictionary
  0
DICTIONARY
  5
1A
330
C
100
AcDbDictionary
  0
DICTIONARY
  5
17
330
C
100
AcDbDictionary
  3
STANDARD
350
18
  0
DICTIONARY
  5
19
330
C
100
AcDbDictionary
  0
ENDSEC
  0
EOF
